<?xml version="1.0" encoding="utf-8" standalone="no"?>
<!DOCTYPE svg PUBLIC "-//W3C//DTD SVG 1.1//EN"
  "http://www.w3.org/Graphics/SVG/1.1/DTD/svg11.dtd">
<svg xmlns:xlink="http://www.w3.org/1999/xlink" width="258.278125pt" height="1208.99625pt" viewBox="0 0 258.278125 1208.99625" xmlns="http://www.w3.org/2000/svg" version="1.1">
 <metadata>
  <rdf:RDF xmlns:dc="http://purl.org/dc/elements/1.1/" xmlns:cc="http://creativecommons.org/ns#" xmlns:rdf="http://www.w3.org/1999/02/22-rdf-syntax-ns#">
   <cc:Work>
    <dc:type rdf:resource="http://purl.org/dc/dcmitype/StillImage"/>
    <dc:date>2023-11-23T09:51:14.341607</dc:date>
    <dc:format>image/svg+xml</dc:format>
    <dc:creator>
     <cc:Agent>
      <dc:title>Matplotlib v3.6.3, https://matplotlib.org/</dc:title>
     </cc:Agent>
    </dc:creator>
   </cc:Work>
  </rdf:RDF>
 </metadata>
 <defs>
  <style type="text/css">*{stroke-linejoin: round; stroke-linecap: butt}</style>
 </defs>
 <g id="figure_1">
  <g id="patch_1">
   <path d="M 0 1208.99625 
L 258.278125 1208.99625 
L 258.278125 0 
L 0 0 
z
" style="fill: #ffffff"/>
  </g>
  <g id="axes_1">
   <g id="patch_2">
    <path d="M 27.878125 1171.44 
L 251.078125 1171.44 
L 251.078125 7.2 
L 27.878125 7.2 
z
" style="fill: #ffffff"/>
   </g>
   <g id="PolyCollection_1">
    <path d="M 54.876469 1100.396712 
L 151.571545 1100.396712 
L 151.571545 1098.584384 
L 151.571545 1096.772055 
L 151.571545 1094.959726 
L 69.474597 1094.959726 
L 69.474597 1094.959726 
L 63.986999 1096.772055 
L 62.578114 1098.584384 
L 54.876469 1100.396712 
z
" clip-path="url(#pa8396a91ee)" style="fill: #1f77b4; fill-opacity: 0.7"/>
   </g>
   <g id="PolyCollection_2">
    <path d="M 84.056473 1075.02411 
L 151.571545 1075.02411 
L 151.571545 1073.211781 
L 151.571545 1071.399452 
L 151.571545 1069.587123 
L 142.357231 1069.587123 
L 142.357231 1069.587123 
L 92.169931 1071.399452 
L 86.894076 1073.211781 
L 84.056473 1075.02411 
z
" clip-path="url(#pa8396a91ee)" style="fill: #ff7f0e; fill-opacity: 0.7"/>
   </g>
   <g id="PolyCollection_3">
    <path d="M 44.302763 1049.651507 
L 151.571545 1049.651507 
L 151.571545 1047.839178 
L 151.571545 1046.026849 
L 151.571545 1044.214521 
L 99.433687 1044.214521 
L 99.433687 1044.214521 
L 98.079888 1046.026849 
L 56.757228 1047.839178 
L 44.302763 1049.651507 
z
" clip-path="url(#pa8396a91ee)" style="fill: #2ca02c; fill-opacity: 0.7"/>
   </g>
   <g id="PolyCollection_4">
    <path d="M 117.599003 1024.278904 
L 151.571545 1024.278904 
L 151.571545 1022.466575 
L 151.571545 1020.654247 
L 151.571545 1018.841918 
L 155.882939 1018.841918 
L 155.882939 1018.841918 
L 129.80866 1020.654247 
L 127.73765 1022.466575 
L 117.599003 1024.278904 
z
" clip-path="url(#pa8396a91ee)" style="fill: #d62728; fill-opacity: 0.7"/>
   </g>
   <g id="PolyCollection_5">
    <path d="M 77.974612 998.906301 
L 151.571545 998.906301 
L 151.571545 997.093973 
L 151.571545 995.281644 
L 151.571545 993.469315 
L 174.451719 993.469315 
L 174.451719 993.469315 
L 170.758451 995.281644 
L 165.488024 997.093973 
L 77.974612 998.906301 
z
" clip-path="url(#pa8396a91ee)" style="fill: #9467bd; fill-opacity: 0.7"/>
   </g>
   <g id="PolyCollection_6">
    <path d="M 164.890153 973.533699 
L 151.571545 973.533699 
L 151.571545 971.72137 
L 151.571545 969.909041 
L 151.571545 968.096712 
L 189.475139 968.096712 
L 189.475139 968.096712 
L 184.67001 969.909041 
L 182.551485 971.72137 
L 164.890153 973.533699 
z
" clip-path="url(#pa8396a91ee)" style="fill: #8c564b; fill-opacity: 0.7"/>
   </g>
   <g id="PolyCollection_7">
    <path d="M 83.470914 948.161096 
L 151.571545 948.161096 
L 151.571545 946.348767 
L 151.571545 944.536438 
L 151.571545 942.72411 
L 223.456942 942.72411 
L 223.456942 942.72411 
L 219.830869 944.536438 
L 218.617685 946.348767 
L 83.470914 948.161096 
z
" clip-path="url(#pa8396a91ee)" style="fill: #e377c2; fill-opacity: 0.7"/>
   </g>
   <g id="PolyCollection_8">
    <path d="M 129.267442 922.788493 
L 151.571545 922.788493 
L 151.571545 920.976164 
L 151.571545 919.163836 
L 151.571545 917.351507 
L 143.979727 917.351507 
L 143.979727 917.351507 
L 137.135282 919.163836 
L 135.641258 920.976164 
L 129.267442 922.788493 
z
" clip-path="url(#pa8396a91ee)" style="fill: #7f7f7f; fill-opacity: 0.7"/>
   </g>
   <g id="PolyCollection_9">
    <path d="M 38.02358 897.41589 
L 151.571545 897.41589 
L 151.571545 895.603562 
L 151.571545 893.791233 
L 151.571545 891.978904 
L 100.428792 891.978904 
L 100.428792 891.978904 
L 95.056452 893.791233 
L 45.710341 895.603562 
L 38.02358 897.41589 
z
" clip-path="url(#pa8396a91ee)" style="fill: #bcbd22; fill-opacity: 0.7"/>
   </g>
   <g id="PolyCollection_10">
    <path d="M 63.659563 872.043288 
L 151.571545 872.043288 
L 151.571545 870.230959 
L 151.571545 868.41863 
L 151.571545 866.606301 
L 116.354494 866.606301 
L 116.354494 866.606301 
L 90.2996 868.41863 
L 72.116804 870.230959 
L 63.659563 872.043288 
z
" clip-path="url(#pa8396a91ee)" style="fill: #17becf; fill-opacity: 0.7"/>
   </g>
   <g id="PolyCollection_11">
    <path d="M 229.331397 846.670685 
L 151.571545 846.670685 
L 151.571545 844.858356 
L 151.571545 843.046027 
L 151.571545 841.233699 
L 239.814157 841.233699 
L 239.814157 841.233699 
L 234.252758 843.046027 
L 230.618398 844.858356 
L 229.331397 846.670685 
z
" clip-path="url(#pa8396a91ee)" style="fill: #1f77b4; fill-opacity: 0.7"/>
   </g>
   <g id="PolyCollection_12">
    <path d="M 50.124271 821.298082 
L 151.571545 821.298082 
L 151.571545 819.485753 
L 151.571545 817.673425 
L 151.571545 815.861096 
L 114.638395 815.861096 
L 114.638395 815.861096 
L 104.000028 817.673425 
L 73.329893 819.485753 
L 50.124271 821.298082 
z
" clip-path="url(#pa8396a91ee)" style="fill: #ff7f0e; fill-opacity: 0.7"/>
   </g>
   <g id="PolyCollection_13">
    <path d="M 134.949699 795.925479 
L 151.571545 795.925479 
L 151.571545 794.113151 
L 151.571545 792.300822 
L 151.571545 790.488493 
L 149.55415 790.488493 
L 149.55415 790.488493 
L 144.139136 792.300822 
L 140.417311 794.113151 
L 134.949699 795.925479 
z
" clip-path="url(#pa8396a91ee)" style="fill: #2ca02c; fill-opacity: 0.7"/>
   </g>
   <g id="PolyCollection_14">
    <path d="M 44.158712 770.552877 
L 151.571545 770.552877 
L 151.571545 768.740548 
L 151.571545 766.928219 
L 151.571545 765.11589 
L 112.040047 765.11589 
L 112.040047 765.11589 
L 111.22504 766.928219 
L 83.54877 768.740548 
L 44.158712 770.552877 
z
" clip-path="url(#pa8396a91ee)" style="fill: #d62728; fill-opacity: 0.7"/>
   </g>
   <g id="PolyCollection_15">
    <path d="M 116.140791 745.180274 
L 151.571545 745.180274 
L 151.571545 743.367945 
L 151.571545 741.555616 
L 151.571545 739.743288 
L 165.285592 739.743288 
L 165.285592 739.743288 
L 145.010393 741.555616 
L 119.477049 743.367945 
L 116.140791 745.180274 
z
" clip-path="url(#pa8396a91ee)" style="fill: #9467bd; fill-opacity: 0.7"/>
   </g>
   <g id="PolyCollection_16">
    <path d="M 200.461093 719.807671 
L 151.571545 719.807671 
L 151.571545 717.995342 
L 151.571545 716.183014 
L 151.571545 714.370685 
L 213.62594 714.370685 
L 213.62594 714.370685 
L 213.590713 716.183014 
L 208.768129 717.995342 
L 200.461093 719.807671 
z
" clip-path="url(#pa8396a91ee)" style="fill: #8c564b; fill-opacity: 0.7"/>
   </g>
   <g id="PolyCollection_17">
    <path d="M 125.300405 694.435068 
L 151.571545 694.435068 
L 151.571545 692.62274 
L 151.571545 690.810411 
L 151.571545 688.998082 
L 164.457915 688.998082 
L 164.457915 688.998082 
L 137.43561 690.810411 
L 131.247491 692.62274 
L 125.300405 694.435068 
z
" clip-path="url(#pa8396a91ee)" style="fill: #e377c2; fill-opacity: 0.7"/>
   </g>
   <g id="PolyCollection_18">
    <path d="M 112.282007 669.062466 
L 151.571545 669.062466 
L 151.571545 667.250137 
L 151.571545 665.437808 
L 151.571545 663.625479 
L 189.475121 663.625479 
L 189.475121 663.625479 
L 188.105102 665.437808 
L 118.472957 667.250137 
L 112.282007 669.062466 
z
" clip-path="url(#pa8396a91ee)" style="fill: #7f7f7f; fill-opacity: 0.7"/>
   </g>
   <g id="PolyCollection_19">
    <path d="M 145.251887 643.689863 
L 151.571545 643.689863 
L 151.571545 641.877534 
L 151.571545 640.065205 
L 151.571545 638.252877 
L 182.829335 638.252877 
L 182.829335 638.252877 
L 171.776641 640.065205 
L 159.71078 641.877534 
L 145.251887 643.689863 
z
" clip-path="url(#pa8396a91ee)" style="fill: #bcbd22; fill-opacity: 0.7"/>
   </g>
   <g id="PolyCollection_20">
    <path d="M 153.046212 618.31726 
L 151.571545 618.31726 
L 151.571545 616.504932 
L 151.571545 614.692603 
L 151.571545 612.880274 
L 171.829068 612.880274 
L 171.829068 612.880274 
L 163.652512 614.692603 
L 162.665657 616.504932 
L 153.046212 618.31726 
z
" clip-path="url(#pa8396a91ee)" style="fill: #17becf; fill-opacity: 0.7"/>
   </g>
   <g id="PolyCollection_21">
    <path d="M 224.134905 592.944658 
L 151.571545 592.944658 
L 151.571545 591.132329 
L 151.571545 589.32 
L 151.571545 587.507671 
L 236.286517 587.507671 
L 236.286517 587.507671 
L 225.104847 589.32 
L 224.437461 591.132329 
L 224.134905 592.944658 
z
" clip-path="url(#pa8396a91ee)" style="fill: #1f77b4; fill-opacity: 0.7"/>
   </g>
   <g id="PolyCollection_22">
    <path d="M 144.552322 567.572055 
L 151.571545 567.572055 
L 151.571545 565.759726 
L 151.571545 563.947397 
L 151.571545 562.135068 
L 154.006468 562.135068 
L 154.006468 562.135068 
L 149.117627 563.947397 
L 148.638019 565.759726 
L 144.552322 567.572055 
z
" clip-path="url(#pa8396a91ee)" style="fill: #ff7f0e; fill-opacity: 0.7"/>
   </g>
   <g id="PolyCollection_23">
    <path d="M 116.224961 542.199452 
L 151.571545 542.199452 
L 151.571545 540.387123 
L 151.571545 538.574795 
L 151.571545 536.762466 
L 240.93267 536.762466 
L 240.93267 536.762466 
L 238.501202 538.574795 
L 235.652402 540.387123 
L 116.224961 542.199452 
z
" clip-path="url(#pa8396a91ee)" style="fill: #2ca02c; fill-opacity: 0.7"/>
   </g>
   <g id="PolyCollection_24">
    <path d="M 117.801582 516.826849 
L 151.571545 516.826849 
L 151.571545 515.014521 
L 151.571545 513.202192 
L 151.571545 511.389863 
L 166.701254 511.389863 
L 166.701254 511.389863 
L 136.793777 513.202192 
L 130.645192 515.014521 
L 117.801582 516.826849 
z
" clip-path="url(#pa8396a91ee)" style="fill: #d62728; fill-opacity: 0.7"/>
   </g>
   <g id="PolyCollection_25">
    <path d="M 64.210756 491.454247 
L 151.571545 491.454247 
L 151.571545 489.641918 
L 151.571545 487.829589 
L 151.571545 486.01726 
L 135.662484 486.01726 
L 135.662484 486.01726 
L 109.364557 487.829589 
L 80.572767 489.641918 
L 64.210756 491.454247 
z
" clip-path="url(#pa8396a91ee)" style="fill: #9467bd; fill-opacity: 0.7"/>
   </g>
   <g id="PolyCollection_26">
    <path d="M 90.470263 466.081644 
L 151.571545 466.081644 
L 151.571545 464.269315 
L 151.571545 462.456986 
L 151.571545 460.644658 
L 198.521152 460.644658 
L 198.521152 460.644658 
L 183.56776 462.456986 
L 182.455174 464.269315 
L 90.470263 466.081644 
z
" clip-path="url(#pa8396a91ee)" style="fill: #8c564b; fill-opacity: 0.7"/>
   </g>
   <g id="PolyCollection_27">
    <path d="M 148.651297 440.709041 
L 151.571545 440.709041 
L 151.571545 438.896712 
L 151.571545 437.084384 
L 151.571545 435.272055 
L 194.038195 435.272055 
L 194.038195 435.272055 
L 176.512436 437.084384 
L 160.246488 438.896712 
L 148.651297 440.709041 
z
" clip-path="url(#pa8396a91ee)" style="fill: #e377c2; fill-opacity: 0.7"/>
   </g>
   <g id="PolyCollection_28">
    <path d="M 229.075126 415.336438 
L 151.571545 415.336438 
L 151.571545 413.52411 
L 151.571545 411.711781 
L 151.571545 409.899452 
L 235.556206 409.899452 
L 235.556206 409.899452 
L 233.168415 411.711781 
L 231.298346 413.52411 
L 229.075126 415.336438 
z
" clip-path="url(#pa8396a91ee)" style="fill: #7f7f7f; fill-opacity: 0.7"/>
   </g>
   <g id="PolyCollection_29">
    <path d="M 41.499127 389.963836 
L 151.571545 389.963836 
L 151.571545 388.151507 
L 151.571545 386.339178 
L 151.571545 384.526849 
L 84.782436 384.526849 
L 84.782436 384.526849 
L 56.827728 386.339178 
L 49.078367 388.151507 
L 41.499127 389.963836 
z
" clip-path="url(#pa8396a91ee)" style="fill: #bcbd22; fill-opacity: 0.7"/>
   </g>
   <g id="PolyCollection_30">
    <path d="M 175.471448 364.591233 
L 151.571545 364.591233 
L 151.571545 362.778904 
L 151.571545 360.966575 
L 151.571545 359.154247 
L 200.312057 359.154247 
L 200.312057 359.154247 
L 193.688456 360.966575 
L 177.537857 362.778904 
L 175.471448 364.591233 
z
" clip-path="url(#pa8396a91ee)" style="fill: #17becf; fill-opacity: 0.7"/>
   </g>
   <g id="PolyCollection_31">
    <path d="M 70.282265 339.21863 
L 151.571545 339.21863 
L 151.571545 337.406301 
L 151.571545 335.593973 
L 151.571545 333.781644 
L 142.38647 333.781644 
L 142.38647 333.781644 
L 95.673216 335.593973 
L 90.357238 337.406301 
L 70.282265 339.21863 
z
" clip-path="url(#pa8396a91ee)" style="fill: #1f77b4; fill-opacity: 0.7"/>
   </g>
   <g id="PolyCollection_32">
    <path d="M 127.523277 313.846027 
L 151.571545 313.846027 
L 151.571545 312.033699 
L 151.571545 310.22137 
L 151.571545 308.409041 
L 163.854625 308.409041 
L 163.854625 308.409041 
L 157.156912 310.22137 
L 152.020734 312.033699 
L 127.523277 313.846027 
z
" clip-path="url(#pa8396a91ee)" style="fill: #ff7f0e; fill-opacity: 0.7"/>
   </g>
   <g id="PolyCollection_33">
    <path d="M 124.794346 288.473425 
L 151.571545 288.473425 
L 151.571545 286.661096 
L 151.571545 284.848767 
L 151.571545 283.036438 
L 148.28111 283.036438 
L 148.28111 283.036438 
L 142.434512 284.848767 
L 135.528136 286.661096 
L 124.794346 288.473425 
z
" clip-path="url(#pa8396a91ee)" style="fill: #2ca02c; fill-opacity: 0.7"/>
   </g>
   <g id="PolyCollection_34">
    <path d="M 129.756659 263.100822 
L 151.571545 263.100822 
L 151.571545 261.288493 
L 151.571545 259.476164 
L 151.571545 257.663836 
L 145.761861 257.663836 
L 145.761861 257.663836 
L 135.699213 259.476164 
L 130.256289 261.288493 
L 129.756659 263.100822 
z
" clip-path="url(#pa8396a91ee)" style="fill: #d62728; fill-opacity: 0.7"/>
   </g>
   <g id="PolyCollection_35">
    <path d="M 135.544137 237.728219 
L 151.571545 237.728219 
L 151.571545 235.91589 
L 151.571545 234.103562 
L 151.571545 232.291233 
L 150.447229 232.291233 
L 150.447229 232.291233 
L 148.230536 234.103562 
L 144.73046 235.91589 
L 135.544137 237.728219 
z
" clip-path="url(#pa8396a91ee)" style="fill: #9467bd; fill-opacity: 0.7"/>
   </g>
   <g id="PolyCollection_36">
    <path d="M 91.824422 212.355616 
L 151.571545 212.355616 
L 151.571545 210.543288 
L 151.571545 208.730959 
L 151.571545 206.91863 
L 176.993964 206.91863 
L 176.993964 206.91863 
L 138.270782 208.730959 
L 125.633295 210.543288 
L 91.824422 212.355616 
z
" clip-path="url(#pa8396a91ee)" style="fill: #8c564b; fill-opacity: 0.7"/>
   </g>
   <g id="PolyCollection_37">
    <path d="M 110.915689 186.983014 
L 151.571545 186.983014 
L 151.571545 185.170685 
L 151.571545 183.358356 
L 151.571545 181.546027 
L 154.877498 181.546027 
L 154.877498 181.546027 
L 117.646151 183.358356 
L 113.61426 185.170685 
L 110.915689 186.983014 
z
" clip-path="url(#pa8396a91ee)" style="fill: #e377c2; fill-opacity: 0.7"/>
   </g>
   <g id="PolyCollection_38">
    <path d="M 145.206169 161.610411 
L 151.571545 161.610411 
L 151.571545 159.798082 
L 151.571545 157.985753 
L 151.571545 156.173425 
L 149.931494 156.173425 
L 149.931494 156.173425 
L 147.246568 157.985753 
L 145.69111 159.798082 
L 145.206169 161.610411 
z
" clip-path="url(#pa8396a91ee)" style="fill: #7f7f7f; fill-opacity: 0.7"/>
   </g>
   <g id="PolyCollection_39">
    <path d="M 154.17388 136.237808 
L 151.571545 136.237808 
L 151.571545 134.425479 
L 151.571545 132.613151 
L 151.571545 130.800822 
L 158.822521 130.800822 
L 158.822521 130.800822 
L 156.822098 132.613151 
L 154.458171 134.425479 
L 154.17388 136.237808 
z
" clip-path="url(#pa8396a91ee)" style="fill: #bcbd22; fill-opacity: 0.7"/>
   </g>
   <g id="PolyCollection_40">
    <path d="M 137.83385 110.865205 
L 151.571545 110.865205 
L 151.571545 109.052877 
L 151.571545 107.240548 
L 151.571545 105.428219 
L 164.969776 105.428219 
L 164.969776 105.428219 
L 164.00581 107.240548 
L 154.205415 109.052877 
L 137.83385 110.865205 
z
" clip-path="url(#pa8396a91ee)" style="fill: #17becf; fill-opacity: 0.7"/>
   </g>
   <g id="PolyCollection_41">
    <path d="M 74.952143 85.492603 
L 151.571545 85.492603 
L 151.571545 83.680274 
L 151.571545 81.867945 
L 151.571545 80.055616 
L 116.671597 80.055616 
L 116.671597 80.055616 
L 111.45581 81.867945 
L 83.814624 83.680274 
L 74.952143 85.492603 
z
" clip-path="url(#pa8396a91ee)" style="fill: #1f77b4; fill-opacity: 0.7"/>
   </g>
   <g id="matplotlib.axis_1">
    <g id="xtick_1">
     <g id="line2d_1">
      <defs>
       <path id="m5b804175d2" d="M 0 0 
L 0 3.5 
" style="stroke: #000000; stroke-width: 0.8"/>
      </defs>
      <g>
       <use xlink:href="#m5b804175d2" x="41.513305" y="1171.44" style="stroke: #000000; stroke-width: 0.8"/>
      </g>
     </g>
     <g id="text_1">
      <!-- −0.75 -->
      <g transform="translate(26.190649 1186.038437) scale(0.1 -0.1)">
       <defs>
        <path id="DejaVuSans-2212" d="M 678 2272 
L 4684 2272 
L 4684 1741 
L 678 1741 
L 678 2272 
z
" transform="scale(0.015625)"/>
        <path id="DejaVuSans-30" d="M 2034 4250 
Q 1547 4250 1301 3770 
Q 1056 3291 1056 2328 
Q 1056 1369 1301 889 
Q 1547 409 2034 409 
Q 2525 409 2770 889 
Q 3016 1369 3016 2328 
Q 3016 3291 2770 3770 
Q 2525 4250 2034 4250 
z
M 2034 4750 
Q 2819 4750 3233 4129 
Q 3647 3509 3647 2328 
Q 3647 1150 3233 529 
Q 2819 -91 2034 -91 
Q 1250 -91 836 529 
Q 422 1150 422 2328 
Q 422 3509 836 4129 
Q 1250 4750 2034 4750 
z
" transform="scale(0.015625)"/>
        <path id="DejaVuSans-2e" d="M 684 794 
L 1344 794 
L 1344 0 
L 684 0 
L 684 794 
z
" transform="scale(0.015625)"/>
        <path id="DejaVuSans-37" d="M 525 4666 
L 3525 4666 
L 3525 4397 
L 1831 0 
L 1172 0 
L 2766 4134 
L 525 4134 
L 525 4666 
z
" transform="scale(0.015625)"/>
        <path id="DejaVuSans-35" d="M 691 4666 
L 3169 4666 
L 3169 4134 
L 1269 4134 
L 1269 2991 
Q 1406 3038 1543 3061 
Q 1681 3084 1819 3084 
Q 2600 3084 3056 2656 
Q 3513 2228 3513 1497 
Q 3513 744 3044 326 
Q 2575 -91 1722 -91 
Q 1428 -91 1123 -41 
Q 819 9 494 109 
L 494 744 
Q 775 591 1075 516 
Q 1375 441 1709 441 
Q 2250 441 2565 725 
Q 2881 1009 2881 1497 
Q 2881 1984 2565 2268 
Q 2250 2553 1709 2553 
Q 1456 2553 1204 2497 
Q 953 2441 691 2322 
L 691 4666 
z
" transform="scale(0.015625)"/>
       </defs>
       <use xlink:href="#DejaVuSans-2212"/>
       <use xlink:href="#DejaVuSans-30" x="83.789062"/>
       <use xlink:href="#DejaVuSans-2e" x="147.412109"/>
       <use xlink:href="#DejaVuSans-37" x="179.199219"/>
       <use xlink:href="#DejaVuSans-35" x="242.822266"/>
      </g>
     </g>
    </g>
    <g id="xtick_2">
     <g id="line2d_2">
      <g>
       <use xlink:href="#m5b804175d2" x="78.199385" y="1171.44" style="stroke: #000000; stroke-width: 0.8"/>
      </g>
     </g>
     <g id="text_2">
      <!-- −0.50 -->
      <g transform="translate(62.876729 1186.038437) scale(0.1 -0.1)">
       <use xlink:href="#DejaVuSans-2212"/>
       <use xlink:href="#DejaVuSans-30" x="83.789062"/>
       <use xlink:href="#DejaVuSans-2e" x="147.412109"/>
       <use xlink:href="#DejaVuSans-35" x="179.199219"/>
       <use xlink:href="#DejaVuSans-30" x="242.822266"/>
      </g>
     </g>
    </g>
    <g id="xtick_3">
     <g id="line2d_3">
      <g>
       <use xlink:href="#m5b804175d2" x="114.885465" y="1171.44" style="stroke: #000000; stroke-width: 0.8"/>
      </g>
     </g>
     <g id="text_3">
      <!-- −0.25 -->
      <g transform="translate(99.562809 1186.038437) scale(0.1 -0.1)">
       <defs>
        <path id="DejaVuSans-32" d="M 1228 531 
L 3431 531 
L 3431 0 
L 469 0 
L 469 531 
Q 828 903 1448 1529 
Q 2069 2156 2228 2338 
Q 2531 2678 2651 2914 
Q 2772 3150 2772 3378 
Q 2772 3750 2511 3984 
Q 2250 4219 1831 4219 
Q 1534 4219 1204 4116 
Q 875 4013 500 3803 
L 500 4441 
Q 881 4594 1212 4672 
Q 1544 4750 1819 4750 
Q 2544 4750 2975 4387 
Q 3406 4025 3406 3419 
Q 3406 3131 3298 2873 
Q 3191 2616 2906 2266 
Q 2828 2175 2409 1742 
Q 1991 1309 1228 531 
z
" transform="scale(0.015625)"/>
       </defs>
       <use xlink:href="#DejaVuSans-2212"/>
       <use xlink:href="#DejaVuSans-30" x="83.789062"/>
       <use xlink:href="#DejaVuSans-2e" x="147.412109"/>
       <use xlink:href="#DejaVuSans-32" x="179.199219"/>
       <use xlink:href="#DejaVuSans-35" x="242.822266"/>
      </g>
     </g>
    </g>
    <g id="xtick_4">
     <g id="line2d_4">
      <g>
       <use xlink:href="#m5b804175d2" x="151.571545" y="1171.44" style="stroke: #000000; stroke-width: 0.8"/>
      </g>
     </g>
     <g id="text_4">
      <!-- 0.00 -->
      <g transform="translate(140.438732 1186.038437) scale(0.1 -0.1)">
       <use xlink:href="#DejaVuSans-30"/>
       <use xlink:href="#DejaVuSans-2e" x="63.623047"/>
       <use xlink:href="#DejaVuSans-30" x="95.410156"/>
       <use xlink:href="#DejaVuSans-30" x="159.033203"/>
      </g>
     </g>
    </g>
    <g id="xtick_5">
     <g id="line2d_5">
      <g>
       <use xlink:href="#m5b804175d2" x="188.257625" y="1171.44" style="stroke: #000000; stroke-width: 0.8"/>
      </g>
     </g>
     <g id="text_5">
      <!-- 0.25 -->
      <g transform="translate(177.124812 1186.038437) scale(0.1 -0.1)">
       <use xlink:href="#DejaVuSans-30"/>
       <use xlink:href="#DejaVuSans-2e" x="63.623047"/>
       <use xlink:href="#DejaVuSans-32" x="95.410156"/>
       <use xlink:href="#DejaVuSans-35" x="159.033203"/>
      </g>
     </g>
    </g>
    <g id="xtick_6">
     <g id="line2d_6">
      <g>
       <use xlink:href="#m5b804175d2" x="224.943705" y="1171.44" style="stroke: #000000; stroke-width: 0.8"/>
      </g>
     </g>
     <g id="text_6">
      <!-- 0.50 -->
      <g transform="translate(213.810892 1186.038437) scale(0.1 -0.1)">
       <use xlink:href="#DejaVuSans-30"/>
       <use xlink:href="#DejaVuSans-2e" x="63.623047"/>
       <use xlink:href="#DejaVuSans-35" x="95.410156"/>
       <use xlink:href="#DejaVuSans-30" x="159.033203"/>
      </g>
     </g>
    </g>
    <g id="text_7">
     <!-- Silhoutte score -->
     <g transform="translate(102.110156 1199.716563) scale(0.1 -0.1)">
      <defs>
       <path id="DejaVuSans-53" d="M 3425 4513 
L 3425 3897 
Q 3066 4069 2747 4153 
Q 2428 4238 2131 4238 
Q 1616 4238 1336 4038 
Q 1056 3838 1056 3469 
Q 1056 3159 1242 3001 
Q 1428 2844 1947 2747 
L 2328 2669 
Q 3034 2534 3370 2195 
Q 3706 1856 3706 1288 
Q 3706 609 3251 259 
Q 2797 -91 1919 -91 
Q 1588 -91 1214 -16 
Q 841 59 441 206 
L 441 856 
Q 825 641 1194 531 
Q 1563 422 1919 422 
Q 2459 422 2753 634 
Q 3047 847 3047 1241 
Q 3047 1584 2836 1778 
Q 2625 1972 2144 2069 
L 1759 2144 
Q 1053 2284 737 2584 
Q 422 2884 422 3419 
Q 422 4038 858 4394 
Q 1294 4750 2059 4750 
Q 2388 4750 2728 4690 
Q 3069 4631 3425 4513 
z
" transform="scale(0.015625)"/>
       <path id="DejaVuSans-69" d="M 603 3500 
L 1178 3500 
L 1178 0 
L 603 0 
L 603 3500 
z
M 603 4863 
L 1178 4863 
L 1178 4134 
L 603 4134 
L 603 4863 
z
" transform="scale(0.015625)"/>
       <path id="DejaVuSans-6c" d="M 603 4863 
L 1178 4863 
L 1178 0 
L 603 0 
L 603 4863 
z
" transform="scale(0.015625)"/>
       <path id="DejaVuSans-68" d="M 3513 2113 
L 3513 0 
L 2938 0 
L 2938 2094 
Q 2938 2591 2744 2837 
Q 2550 3084 2163 3084 
Q 1697 3084 1428 2787 
Q 1159 2491 1159 1978 
L 1159 0 
L 581 0 
L 581 4863 
L 1159 4863 
L 1159 2956 
Q 1366 3272 1645 3428 
Q 1925 3584 2291 3584 
Q 2894 3584 3203 3211 
Q 3513 2838 3513 2113 
z
" transform="scale(0.015625)"/>
       <path id="DejaVuSans-6f" d="M 1959 3097 
Q 1497 3097 1228 2736 
Q 959 2375 959 1747 
Q 959 1119 1226 758 
Q 1494 397 1959 397 
Q 2419 397 2687 759 
Q 2956 1122 2956 1747 
Q 2956 2369 2687 2733 
Q 2419 3097 1959 3097 
z
M 1959 3584 
Q 2709 3584 3137 3096 
Q 3566 2609 3566 1747 
Q 3566 888 3137 398 
Q 2709 -91 1959 -91 
Q 1206 -91 779 398 
Q 353 888 353 1747 
Q 353 2609 779 3096 
Q 1206 3584 1959 3584 
z
" transform="scale(0.015625)"/>
       <path id="DejaVuSans-75" d="M 544 1381 
L 544 3500 
L 1119 3500 
L 1119 1403 
Q 1119 906 1312 657 
Q 1506 409 1894 409 
Q 2359 409 2629 706 
Q 2900 1003 2900 1516 
L 2900 3500 
L 3475 3500 
L 3475 0 
L 2900 0 
L 2900 538 
Q 2691 219 2414 64 
Q 2138 -91 1772 -91 
Q 1169 -91 856 284 
Q 544 659 544 1381 
z
M 1991 3584 
L 1991 3584 
z
" transform="scale(0.015625)"/>
       <path id="DejaVuSans-74" d="M 1172 4494 
L 1172 3500 
L 2356 3500 
L 2356 3053 
L 1172 3053 
L 1172 1153 
Q 1172 725 1289 603 
Q 1406 481 1766 481 
L 2356 481 
L 2356 0 
L 1766 0 
Q 1100 0 847 248 
Q 594 497 594 1153 
L 594 3053 
L 172 3053 
L 172 3500 
L 594 3500 
L 594 4494 
L 1172 4494 
z
" transform="scale(0.015625)"/>
       <path id="DejaVuSans-65" d="M 3597 1894 
L 3597 1613 
L 953 1613 
Q 991 1019 1311 708 
Q 1631 397 2203 397 
Q 2534 397 2845 478 
Q 3156 559 3463 722 
L 3463 178 
Q 3153 47 2828 -22 
Q 2503 -91 2169 -91 
Q 1331 -91 842 396 
Q 353 884 353 1716 
Q 353 2575 817 3079 
Q 1281 3584 2069 3584 
Q 2775 3584 3186 3129 
Q 3597 2675 3597 1894 
z
M 3022 2063 
Q 3016 2534 2758 2815 
Q 2500 3097 2075 3097 
Q 1594 3097 1305 2825 
Q 1016 2553 972 2059 
L 3022 2063 
z
" transform="scale(0.015625)"/>
       <path id="DejaVuSans-20" transform="scale(0.015625)"/>
       <path id="DejaVuSans-73" d="M 2834 3397 
L 2834 2853 
Q 2591 2978 2328 3040 
Q 2066 3103 1784 3103 
Q 1356 3103 1142 2972 
Q 928 2841 928 2578 
Q 928 2378 1081 2264 
Q 1234 2150 1697 2047 
L 1894 2003 
Q 2506 1872 2764 1633 
Q 3022 1394 3022 966 
Q 3022 478 2636 193 
Q 2250 -91 1575 -91 
Q 1294 -91 989 -36 
Q 684 19 347 128 
L 347 722 
Q 666 556 975 473 
Q 1284 391 1588 391 
Q 1994 391 2212 530 
Q 2431 669 2431 922 
Q 2431 1156 2273 1281 
Q 2116 1406 1581 1522 
L 1381 1569 
Q 847 1681 609 1914 
Q 372 2147 372 2553 
Q 372 3047 722 3315 
Q 1072 3584 1716 3584 
Q 2034 3584 2315 3537 
Q 2597 3491 2834 3397 
z
" transform="scale(0.015625)"/>
       <path id="DejaVuSans-63" d="M 3122 3366 
L 3122 2828 
Q 2878 2963 2633 3030 
Q 2388 3097 2138 3097 
Q 1578 3097 1268 2742 
Q 959 2388 959 1747 
Q 959 1106 1268 751 
Q 1578 397 2138 397 
Q 2388 397 2633 464 
Q 2878 531 3122 666 
L 3122 134 
Q 2881 22 2623 -34 
Q 2366 -91 2075 -91 
Q 1284 -91 818 406 
Q 353 903 353 1747 
Q 353 2603 823 3093 
Q 1294 3584 2113 3584 
Q 2378 3584 2631 3529 
Q 2884 3475 3122 3366 
z
" transform="scale(0.015625)"/>
       <path id="DejaVuSans-72" d="M 2631 2963 
Q 2534 3019 2420 3045 
Q 2306 3072 2169 3072 
Q 1681 3072 1420 2755 
Q 1159 2438 1159 1844 
L 1159 0 
L 581 0 
L 581 3500 
L 1159 3500 
L 1159 2956 
Q 1341 3275 1631 3429 
Q 1922 3584 2338 3584 
Q 2397 3584 2469 3576 
Q 2541 3569 2628 3553 
L 2631 2963 
z
" transform="scale(0.015625)"/>
      </defs>
      <use xlink:href="#DejaVuSans-53"/>
      <use xlink:href="#DejaVuSans-69" x="63.476562"/>
      <use xlink:href="#DejaVuSans-6c" x="91.259766"/>
      <use xlink:href="#DejaVuSans-68" x="119.042969"/>
      <use xlink:href="#DejaVuSans-6f" x="182.421875"/>
      <use xlink:href="#DejaVuSans-75" x="243.603516"/>
      <use xlink:href="#DejaVuSans-74" x="306.982422"/>
      <use xlink:href="#DejaVuSans-74" x="346.191406"/>
      <use xlink:href="#DejaVuSans-65" x="385.400391"/>
      <use xlink:href="#DejaVuSans-20" x="446.923828"/>
      <use xlink:href="#DejaVuSans-73" x="478.710938"/>
      <use xlink:href="#DejaVuSans-63" x="530.810547"/>
      <use xlink:href="#DejaVuSans-6f" x="585.791016"/>
      <use xlink:href="#DejaVuSans-72" x="646.972656"/>
      <use xlink:href="#DejaVuSans-65" x="685.835938"/>
     </g>
    </g>
   </g>
   <g id="matplotlib.axis_2">
    <g id="ytick_1">
     <g id="line2d_7">
      <defs>
       <path id="m8df713171a" d="M 0 0 
L -3.5 0 
" style="stroke: #000000; stroke-width: 0.8"/>
      </defs>
      <g>
       <use xlink:href="#m8df713171a" x="27.878125" y="1118.52" style="stroke: #000000; stroke-width: 0.8"/>
      </g>
     </g>
    </g>
    <g id="ytick_2">
     <g id="line2d_8">
      <g>
       <use xlink:href="#m8df713171a" x="27.878125" y="937.287123" style="stroke: #000000; stroke-width: 0.8"/>
      </g>
     </g>
    </g>
    <g id="ytick_3">
     <g id="line2d_9">
      <g>
       <use xlink:href="#m8df713171a" x="27.878125" y="756.054247" style="stroke: #000000; stroke-width: 0.8"/>
      </g>
     </g>
    </g>
    <g id="ytick_4">
     <g id="line2d_10">
      <g>
       <use xlink:href="#m8df713171a" x="27.878125" y="574.82137" style="stroke: #000000; stroke-width: 0.8"/>
      </g>
     </g>
    </g>
    <g id="ytick_5">
     <g id="line2d_11">
      <g>
       <use xlink:href="#m8df713171a" x="27.878125" y="393.588493" style="stroke: #000000; stroke-width: 0.8"/>
      </g>
     </g>
    </g>
    <g id="ytick_6">
     <g id="line2d_12">
      <g>
       <use xlink:href="#m8df713171a" x="27.878125" y="212.355616" style="stroke: #000000; stroke-width: 0.8"/>
      </g>
     </g>
    </g>
    <g id="ytick_7">
     <g id="line2d_13">
      <g>
       <use xlink:href="#m8df713171a" x="27.878125" y="31.12274" style="stroke: #000000; stroke-width: 0.8"/>
      </g>
     </g>
    </g>
    <g id="text_8">
     <!-- Meta-signature index -->
     <g transform="translate(14.798438 642.3575) rotate(-90) scale(0.1 -0.1)">
      <defs>
       <path id="DejaVuSans-4d" d="M 628 4666 
L 1569 4666 
L 2759 1491 
L 3956 4666 
L 4897 4666 
L 4897 0 
L 4281 0 
L 4281 4097 
L 3078 897 
L 2444 897 
L 1241 4097 
L 1241 0 
L 628 0 
L 628 4666 
z
" transform="scale(0.015625)"/>
       <path id="DejaVuSans-61" d="M 2194 1759 
Q 1497 1759 1228 1600 
Q 959 1441 959 1056 
Q 959 750 1161 570 
Q 1363 391 1709 391 
Q 2188 391 2477 730 
Q 2766 1069 2766 1631 
L 2766 1759 
L 2194 1759 
z
M 3341 1997 
L 3341 0 
L 2766 0 
L 2766 531 
Q 2569 213 2275 61 
Q 1981 -91 1556 -91 
Q 1019 -91 701 211 
Q 384 513 384 1019 
Q 384 1609 779 1909 
Q 1175 2209 1959 2209 
L 2766 2209 
L 2766 2266 
Q 2766 2663 2505 2880 
Q 2244 3097 1772 3097 
Q 1472 3097 1187 3025 
Q 903 2953 641 2809 
L 641 3341 
Q 956 3463 1253 3523 
Q 1550 3584 1831 3584 
Q 2591 3584 2966 3190 
Q 3341 2797 3341 1997 
z
" transform="scale(0.015625)"/>
       <path id="DejaVuSans-2d" d="M 313 2009 
L 1997 2009 
L 1997 1497 
L 313 1497 
L 313 2009 
z
" transform="scale(0.015625)"/>
       <path id="DejaVuSans-67" d="M 2906 1791 
Q 2906 2416 2648 2759 
Q 2391 3103 1925 3103 
Q 1463 3103 1205 2759 
Q 947 2416 947 1791 
Q 947 1169 1205 825 
Q 1463 481 1925 481 
Q 2391 481 2648 825 
Q 2906 1169 2906 1791 
z
M 3481 434 
Q 3481 -459 3084 -895 
Q 2688 -1331 1869 -1331 
Q 1566 -1331 1297 -1286 
Q 1028 -1241 775 -1147 
L 775 -588 
Q 1028 -725 1275 -790 
Q 1522 -856 1778 -856 
Q 2344 -856 2625 -561 
Q 2906 -266 2906 331 
L 2906 616 
Q 2728 306 2450 153 
Q 2172 0 1784 0 
Q 1141 0 747 490 
Q 353 981 353 1791 
Q 353 2603 747 3093 
Q 1141 3584 1784 3584 
Q 2172 3584 2450 3431 
Q 2728 3278 2906 2969 
L 2906 3500 
L 3481 3500 
L 3481 434 
z
" transform="scale(0.015625)"/>
       <path id="DejaVuSans-6e" d="M 3513 2113 
L 3513 0 
L 2938 0 
L 2938 2094 
Q 2938 2591 2744 2837 
Q 2550 3084 2163 3084 
Q 1697 3084 1428 2787 
Q 1159 2491 1159 1978 
L 1159 0 
L 581 0 
L 581 3500 
L 1159 3500 
L 1159 2956 
Q 1366 3272 1645 3428 
Q 1925 3584 2291 3584 
Q 2894 3584 3203 3211 
Q 3513 2838 3513 2113 
z
" transform="scale(0.015625)"/>
       <path id="DejaVuSans-64" d="M 2906 2969 
L 2906 4863 
L 3481 4863 
L 3481 0 
L 2906 0 
L 2906 525 
Q 2725 213 2448 61 
Q 2172 -91 1784 -91 
Q 1150 -91 751 415 
Q 353 922 353 1747 
Q 353 2572 751 3078 
Q 1150 3584 1784 3584 
Q 2172 3584 2448 3432 
Q 2725 3281 2906 2969 
z
M 947 1747 
Q 947 1113 1208 752 
Q 1469 391 1925 391 
Q 2381 391 2643 752 
Q 2906 1113 2906 1747 
Q 2906 2381 2643 2742 
Q 2381 3103 1925 3103 
Q 1469 3103 1208 2742 
Q 947 2381 947 1747 
z
" transform="scale(0.015625)"/>
       <path id="DejaVuSans-78" d="M 3513 3500 
L 2247 1797 
L 3578 0 
L 2900 0 
L 1881 1375 
L 863 0 
L 184 0 
L 1544 1831 
L 300 3500 
L 978 3500 
L 1906 2253 
L 2834 3500 
L 3513 3500 
z
" transform="scale(0.015625)"/>
      </defs>
      <use xlink:href="#DejaVuSans-4d"/>
      <use xlink:href="#DejaVuSans-65" x="86.279297"/>
      <use xlink:href="#DejaVuSans-74" x="147.802734"/>
      <use xlink:href="#DejaVuSans-61" x="187.011719"/>
      <use xlink:href="#DejaVuSans-2d" x="248.291016"/>
      <use xlink:href="#DejaVuSans-73" x="284.375"/>
      <use xlink:href="#DejaVuSans-69" x="336.474609"/>
      <use xlink:href="#DejaVuSans-67" x="364.257812"/>
      <use xlink:href="#DejaVuSans-6e" x="427.734375"/>
      <use xlink:href="#DejaVuSans-61" x="491.113281"/>
      <use xlink:href="#DejaVuSans-74" x="552.392578"/>
      <use xlink:href="#DejaVuSans-75" x="591.601562"/>
      <use xlink:href="#DejaVuSans-72" x="654.980469"/>
      <use xlink:href="#DejaVuSans-65" x="693.84375"/>
      <use xlink:href="#DejaVuSans-20" x="755.367188"/>
      <use xlink:href="#DejaVuSans-69" x="787.154297"/>
      <use xlink:href="#DejaVuSans-6e" x="814.9375"/>
      <use xlink:href="#DejaVuSans-64" x="878.316406"/>
      <use xlink:href="#DejaVuSans-65" x="941.792969"/>
      <use xlink:href="#DejaVuSans-78" x="1001.566406"/>
     </g>
    </g>
   </g>
   <g id="line2d_14">
    <path d="M 188.257625 1118.52 
L 188.257625 60.12 
" clip-path="url(#pa8396a91ee)" style="fill: none; stroke-dasharray: 5.55,2.4; stroke-dashoffset: 0; stroke: #000000; stroke-width: 1.5"/>
   </g>
   <g id="patch_3">
    <path d="M 27.878125 1171.44 
L 27.878125 7.2 
" style="fill: none; stroke: #000000; stroke-width: 0.8; stroke-linejoin: miter; stroke-linecap: square"/>
   </g>
   <g id="patch_4">
    <path d="M 251.078125 1171.44 
L 251.078125 7.2 
" style="fill: none; stroke: #000000; stroke-width: 0.8; stroke-linejoin: miter; stroke-linecap: square"/>
   </g>
   <g id="patch_5">
    <path d="M 27.878125 1171.44 
L 251.078125 1171.44 
" style="fill: none; stroke: #000000; stroke-width: 0.8; stroke-linejoin: miter; stroke-linecap: square"/>
   </g>
   <g id="patch_6">
    <path d="M 27.878125 7.2 
L 251.078125 7.2 
" style="fill: none; stroke: #000000; stroke-width: 0.8; stroke-linejoin: miter; stroke-linecap: square"/>
   </g>
   <g id="text_9">
    <!-- 0 -->
    <g transform="translate(144.234329 1096.772055) scale(0.1 -0.1)">
     <use xlink:href="#DejaVuSans-30"/>
    </g>
   </g>
   <g id="text_10">
    <!-- 1 -->
    <g transform="translate(144.234329 1071.399452) scale(0.1 -0.1)">
     <defs>
      <path id="DejaVuSans-31" d="M 794 531 
L 1825 531 
L 1825 4091 
L 703 3866 
L 703 4441 
L 1819 4666 
L 2450 4666 
L 2450 531 
L 3481 531 
L 3481 0 
L 794 0 
L 794 531 
z
" transform="scale(0.015625)"/>
     </defs>
     <use xlink:href="#DejaVuSans-31"/>
    </g>
   </g>
   <g id="text_11">
    <!-- 2 -->
    <g transform="translate(144.234329 1046.026849) scale(0.1 -0.1)">
     <use xlink:href="#DejaVuSans-32"/>
    </g>
   </g>
   <g id="text_12">
    <!-- 3 -->
    <g transform="translate(144.234329 1020.654247) scale(0.1 -0.1)">
     <defs>
      <path id="DejaVuSans-33" d="M 2597 2516 
Q 3050 2419 3304 2112 
Q 3559 1806 3559 1356 
Q 3559 666 3084 287 
Q 2609 -91 1734 -91 
Q 1441 -91 1130 -33 
Q 819 25 488 141 
L 488 750 
Q 750 597 1062 519 
Q 1375 441 1716 441 
Q 2309 441 2620 675 
Q 2931 909 2931 1356 
Q 2931 1769 2642 2001 
Q 2353 2234 1838 2234 
L 1294 2234 
L 1294 2753 
L 1863 2753 
Q 2328 2753 2575 2939 
Q 2822 3125 2822 3475 
Q 2822 3834 2567 4026 
Q 2313 4219 1838 4219 
Q 1578 4219 1281 4162 
Q 984 4106 628 3988 
L 628 4550 
Q 988 4650 1302 4700 
Q 1616 4750 1894 4750 
Q 2613 4750 3031 4423 
Q 3450 4097 3450 3541 
Q 3450 3153 3228 2886 
Q 3006 2619 2597 2516 
z
" transform="scale(0.015625)"/>
     </defs>
     <use xlink:href="#DejaVuSans-33"/>
    </g>
   </g>
   <g id="text_13">
    <!-- 4 -->
    <g transform="translate(144.234329 995.281644) scale(0.1 -0.1)">
     <defs>
      <path id="DejaVuSans-34" d="M 2419 4116 
L 825 1625 
L 2419 1625 
L 2419 4116 
z
M 2253 4666 
L 3047 4666 
L 3047 1625 
L 3713 1625 
L 3713 1100 
L 3047 1100 
L 3047 0 
L 2419 0 
L 2419 1100 
L 313 1100 
L 313 1709 
L 2253 4666 
z
" transform="scale(0.015625)"/>
     </defs>
     <use xlink:href="#DejaVuSans-34"/>
    </g>
   </g>
   <g id="text_14">
    <!-- 5 -->
    <g transform="translate(144.234329 969.909041) scale(0.1 -0.1)">
     <use xlink:href="#DejaVuSans-35"/>
    </g>
   </g>
   <g id="text_15">
    <!-- 6 -->
    <g transform="translate(144.234329 944.536438) scale(0.1 -0.1)">
     <defs>
      <path id="DejaVuSans-36" d="M 2113 2584 
Q 1688 2584 1439 2293 
Q 1191 2003 1191 1497 
Q 1191 994 1439 701 
Q 1688 409 2113 409 
Q 2538 409 2786 701 
Q 3034 994 3034 1497 
Q 3034 2003 2786 2293 
Q 2538 2584 2113 2584 
z
M 3366 4563 
L 3366 3988 
Q 3128 4100 2886 4159 
Q 2644 4219 2406 4219 
Q 1781 4219 1451 3797 
Q 1122 3375 1075 2522 
Q 1259 2794 1537 2939 
Q 1816 3084 2150 3084 
Q 2853 3084 3261 2657 
Q 3669 2231 3669 1497 
Q 3669 778 3244 343 
Q 2819 -91 2113 -91 
Q 1303 -91 875 529 
Q 447 1150 447 2328 
Q 447 3434 972 4092 
Q 1497 4750 2381 4750 
Q 2619 4750 2861 4703 
Q 3103 4656 3366 4563 
z
" transform="scale(0.015625)"/>
     </defs>
     <use xlink:href="#DejaVuSans-36"/>
    </g>
   </g>
   <g id="text_16">
    <!-- 7 -->
    <g transform="translate(144.234329 919.163836) scale(0.1 -0.1)">
     <use xlink:href="#DejaVuSans-37"/>
    </g>
   </g>
   <g id="text_17">
    <!-- 8 -->
    <g transform="translate(144.234329 893.791233) scale(0.1 -0.1)">
     <defs>
      <path id="DejaVuSans-38" d="M 2034 2216 
Q 1584 2216 1326 1975 
Q 1069 1734 1069 1313 
Q 1069 891 1326 650 
Q 1584 409 2034 409 
Q 2484 409 2743 651 
Q 3003 894 3003 1313 
Q 3003 1734 2745 1975 
Q 2488 2216 2034 2216 
z
M 1403 2484 
Q 997 2584 770 2862 
Q 544 3141 544 3541 
Q 544 4100 942 4425 
Q 1341 4750 2034 4750 
Q 2731 4750 3128 4425 
Q 3525 4100 3525 3541 
Q 3525 3141 3298 2862 
Q 3072 2584 2669 2484 
Q 3125 2378 3379 2068 
Q 3634 1759 3634 1313 
Q 3634 634 3220 271 
Q 2806 -91 2034 -91 
Q 1263 -91 848 271 
Q 434 634 434 1313 
Q 434 1759 690 2068 
Q 947 2378 1403 2484 
z
M 1172 3481 
Q 1172 3119 1398 2916 
Q 1625 2713 2034 2713 
Q 2441 2713 2670 2916 
Q 2900 3119 2900 3481 
Q 2900 3844 2670 4047 
Q 2441 4250 2034 4250 
Q 1625 4250 1398 4047 
Q 1172 3844 1172 3481 
z
" transform="scale(0.015625)"/>
     </defs>
     <use xlink:href="#DejaVuSans-38"/>
    </g>
   </g>
   <g id="text_18">
    <!-- 9 -->
    <g transform="translate(144.234329 868.41863) scale(0.1 -0.1)">
     <defs>
      <path id="DejaVuSans-39" d="M 703 97 
L 703 672 
Q 941 559 1184 500 
Q 1428 441 1663 441 
Q 2288 441 2617 861 
Q 2947 1281 2994 2138 
Q 2813 1869 2534 1725 
Q 2256 1581 1919 1581 
Q 1219 1581 811 2004 
Q 403 2428 403 3163 
Q 403 3881 828 4315 
Q 1253 4750 1959 4750 
Q 2769 4750 3195 4129 
Q 3622 3509 3622 2328 
Q 3622 1225 3098 567 
Q 2575 -91 1691 -91 
Q 1453 -91 1209 -44 
Q 966 3 703 97 
z
M 1959 2075 
Q 2384 2075 2632 2365 
Q 2881 2656 2881 3163 
Q 2881 3666 2632 3958 
Q 2384 4250 1959 4250 
Q 1534 4250 1286 3958 
Q 1038 3666 1038 3163 
Q 1038 2656 1286 2365 
Q 1534 2075 1959 2075 
z
" transform="scale(0.015625)"/>
     </defs>
     <use xlink:href="#DejaVuSans-39"/>
    </g>
   </g>
   <g id="text_19">
    <!-- 10 -->
    <g transform="translate(144.234329 843.046027) scale(0.1 -0.1)">
     <use xlink:href="#DejaVuSans-31"/>
     <use xlink:href="#DejaVuSans-30" x="63.623047"/>
    </g>
   </g>
   <g id="text_20">
    <!-- 11 -->
    <g transform="translate(144.234329 817.673425) scale(0.1 -0.1)">
     <use xlink:href="#DejaVuSans-31"/>
     <use xlink:href="#DejaVuSans-31" x="63.623047"/>
    </g>
   </g>
   <g id="text_21">
    <!-- 12 -->
    <g transform="translate(144.234329 792.300822) scale(0.1 -0.1)">
     <use xlink:href="#DejaVuSans-31"/>
     <use xlink:href="#DejaVuSans-32" x="63.623047"/>
    </g>
   </g>
   <g id="text_22">
    <!-- 13 -->
    <g transform="translate(144.234329 766.928219) scale(0.1 -0.1)">
     <use xlink:href="#DejaVuSans-31"/>
     <use xlink:href="#DejaVuSans-33" x="63.623047"/>
    </g>
   </g>
   <g id="text_23">
    <!-- 14 -->
    <g transform="translate(144.234329 741.555616) scale(0.1 -0.1)">
     <use xlink:href="#DejaVuSans-31"/>
     <use xlink:href="#DejaVuSans-34" x="63.623047"/>
    </g>
   </g>
   <g id="text_24">
    <!-- 15 -->
    <g transform="translate(144.234329 716.183014) scale(0.1 -0.1)">
     <use xlink:href="#DejaVuSans-31"/>
     <use xlink:href="#DejaVuSans-35" x="63.623047"/>
    </g>
   </g>
   <g id="text_25">
    <!-- 16 -->
    <g transform="translate(144.234329 690.810411) scale(0.1 -0.1)">
     <use xlink:href="#DejaVuSans-31"/>
     <use xlink:href="#DejaVuSans-36" x="63.623047"/>
    </g>
   </g>
   <g id="text_26">
    <!-- 17 -->
    <g transform="translate(144.234329 665.437808) scale(0.1 -0.1)">
     <use xlink:href="#DejaVuSans-31"/>
     <use xlink:href="#DejaVuSans-37" x="63.623047"/>
    </g>
   </g>
   <g id="text_27">
    <!-- 18 -->
    <g transform="translate(144.234329 640.065205) scale(0.1 -0.1)">
     <use xlink:href="#DejaVuSans-31"/>
     <use xlink:href="#DejaVuSans-38" x="63.623047"/>
    </g>
   </g>
   <g id="text_28">
    <!-- 19 -->
    <g transform="translate(144.234329 614.692603) scale(0.1 -0.1)">
     <use xlink:href="#DejaVuSans-31"/>
     <use xlink:href="#DejaVuSans-39" x="63.623047"/>
    </g>
   </g>
   <g id="text_29">
    <!-- 20 -->
    <g transform="translate(144.234329 589.32) scale(0.1 -0.1)">
     <use xlink:href="#DejaVuSans-32"/>
     <use xlink:href="#DejaVuSans-30" x="63.623047"/>
    </g>
   </g>
   <g id="text_30">
    <!-- 21 -->
    <g transform="translate(144.234329 563.947397) scale(0.1 -0.1)">
     <use xlink:href="#DejaVuSans-32"/>
     <use xlink:href="#DejaVuSans-31" x="63.623047"/>
    </g>
   </g>
   <g id="text_31">
    <!-- 22 -->
    <g transform="translate(144.234329 538.574795) scale(0.1 -0.1)">
     <use xlink:href="#DejaVuSans-32"/>
     <use xlink:href="#DejaVuSans-32" x="63.623047"/>
    </g>
   </g>
   <g id="text_32">
    <!-- 23 -->
    <g transform="translate(144.234329 513.202192) scale(0.1 -0.1)">
     <use xlink:href="#DejaVuSans-32"/>
     <use xlink:href="#DejaVuSans-33" x="63.623047"/>
    </g>
   </g>
   <g id="text_33">
    <!-- 24 -->
    <g transform="translate(144.234329 487.829589) scale(0.1 -0.1)">
     <use xlink:href="#DejaVuSans-32"/>
     <use xlink:href="#DejaVuSans-34" x="63.623047"/>
    </g>
   </g>
   <g id="text_34">
    <!-- 25 -->
    <g transform="translate(144.234329 462.456986) scale(0.1 -0.1)">
     <use xlink:href="#DejaVuSans-32"/>
     <use xlink:href="#DejaVuSans-35" x="63.623047"/>
    </g>
   </g>
   <g id="text_35">
    <!-- 26 -->
    <g transform="translate(144.234329 437.084384) scale(0.1 -0.1)">
     <use xlink:href="#DejaVuSans-32"/>
     <use xlink:href="#DejaVuSans-36" x="63.623047"/>
    </g>
   </g>
   <g id="text_36">
    <!-- 27 -->
    <g transform="translate(144.234329 411.711781) scale(0.1 -0.1)">
     <use xlink:href="#DejaVuSans-32"/>
     <use xlink:href="#DejaVuSans-37" x="63.623047"/>
    </g>
   </g>
   <g id="text_37">
    <!-- 28 -->
    <g transform="translate(144.234329 386.339178) scale(0.1 -0.1)">
     <use xlink:href="#DejaVuSans-32"/>
     <use xlink:href="#DejaVuSans-38" x="63.623047"/>
    </g>
   </g>
   <g id="text_38">
    <!-- 29 -->
    <g transform="translate(144.234329 360.966575) scale(0.1 -0.1)">
     <use xlink:href="#DejaVuSans-32"/>
     <use xlink:href="#DejaVuSans-39" x="63.623047"/>
    </g>
   </g>
   <g id="text_39">
    <!-- 30 -->
    <g transform="translate(144.234329 335.593973) scale(0.1 -0.1)">
     <use xlink:href="#DejaVuSans-33"/>
     <use xlink:href="#DejaVuSans-30" x="63.623047"/>
    </g>
   </g>
   <g id="text_40">
    <!-- 31 -->
    <g transform="translate(144.234329 310.22137) scale(0.1 -0.1)">
     <use xlink:href="#DejaVuSans-33"/>
     <use xlink:href="#DejaVuSans-31" x="63.623047"/>
    </g>
   </g>
   <g id="text_41">
    <!-- 32 -->
    <g transform="translate(144.234329 284.848767) scale(0.1 -0.1)">
     <use xlink:href="#DejaVuSans-33"/>
     <use xlink:href="#DejaVuSans-32" x="63.623047"/>
    </g>
   </g>
   <g id="text_42">
    <!-- 33 -->
    <g transform="translate(144.234329 259.476164) scale(0.1 -0.1)">
     <use xlink:href="#DejaVuSans-33"/>
     <use xlink:href="#DejaVuSans-33" x="63.623047"/>
    </g>
   </g>
   <g id="text_43">
    <!-- 34 -->
    <g transform="translate(144.234329 234.103562) scale(0.1 -0.1)">
     <use xlink:href="#DejaVuSans-33"/>
     <use xlink:href="#DejaVuSans-34" x="63.623047"/>
    </g>
   </g>
   <g id="text_44">
    <!-- 35 -->
    <g transform="translate(144.234329 208.730959) scale(0.1 -0.1)">
     <use xlink:href="#DejaVuSans-33"/>
     <use xlink:href="#DejaVuSans-35" x="63.623047"/>
    </g>
   </g>
   <g id="text_45">
    <!-- 36 -->
    <g transform="translate(144.234329 183.358356) scale(0.1 -0.1)">
     <use xlink:href="#DejaVuSans-33"/>
     <use xlink:href="#DejaVuSans-36" x="63.623047"/>
    </g>
   </g>
   <g id="text_46">
    <!-- 37 -->
    <g transform="translate(144.234329 157.985753) scale(0.1 -0.1)">
     <use xlink:href="#DejaVuSans-33"/>
     <use xlink:href="#DejaVuSans-37" x="63.623047"/>
    </g>
   </g>
   <g id="text_47">
    <!-- 38 -->
    <g transform="translate(144.234329 132.613151) scale(0.1 -0.1)">
     <use xlink:href="#DejaVuSans-33"/>
     <use xlink:href="#DejaVuSans-38" x="63.623047"/>
    </g>
   </g>
   <g id="text_48">
    <!-- 39 -->
    <g transform="translate(144.234329 107.240548) scale(0.1 -0.1)">
     <use xlink:href="#DejaVuSans-33"/>
     <use xlink:href="#DejaVuSans-39" x="63.623047"/>
    </g>
   </g>
   <g id="text_49">
    <!-- 40 -->
    <g transform="translate(144.234329 81.867945) scale(0.1 -0.1)">
     <use xlink:href="#DejaVuSans-34"/>
     <use xlink:href="#DejaVuSans-30" x="63.623047"/>
    </g>
   </g>
  </g>
 </g>
 <defs>
  <clipPath id="pa8396a91ee">
   <rect x="27.878125" y="7.2" width="223.2" height="1164.24"/>
  </clipPath>
 </defs>
</svg>
