<?xml version="1.0" encoding="UTF-8" standalone="no"?>
<!-- Created with Inkscape (http://www.inkscape.org/) -->

<svg
   id="svg5"
   version="1.1"
   viewBox="0 0 311.92569 89.166436"
   height="89.166435mm"
   width="311.92569mm"
   sodipodi:docname="mcmc.svg"
   inkscape:version="1.1.2 (0a00cf5339, 2022-02-04)"
   inkscape:export-filename="/home/hylke/workspace/deep-topic-modelling/figures/mcmc.png"
   inkscape:export-xdpi="96"
   inkscape:export-ydpi="96"
   xmlns:inkscape="http://www.inkscape.org/namespaces/inkscape"
   xmlns:sodipodi="http://sodipodi.sourceforge.net/DTD/sodipodi-0.dtd"
   xmlns:xlink="http://www.w3.org/1999/xlink"
   xmlns="http://www.w3.org/2000/svg"
   xmlns:svg="http://www.w3.org/2000/svg">
  <sodipodi:namedview
     id="namedview7"
     pagecolor="#ffffff"
     bordercolor="#666666"
     borderopacity="1.0"
     inkscape:pageshadow="2"
     inkscape:pageopacity="0.0"
     inkscape:pagecheckerboard="0"
     inkscape:document-units="mm"
     showgrid="false"
     inkscape:zoom="1.7234835"
     inkscape:cx="931.8337"
     inkscape:cy="161.30123"
     inkscape:window-width="1920"
     inkscape:window-height="1051"
     inkscape:window-x="0"
     inkscape:window-y="0"
     inkscape:window-maximized="1"
     inkscape:current-layer="layer1"
     fit-margin-top="0"
     fit-margin-left="0"
     fit-margin-right="0"
     fit-margin-bottom="0" />
  <defs
     id="defs2">
    <marker
       style="overflow:visible"
       id="marker37156"
       refX="0"
       refY="0"
       orient="auto"
       inkscape:stockid="Arrow1Send"
       inkscape:isstock="true">
      <path
         transform="matrix(-0.2,0,0,-0.2,-1.2,0)"
         style="fill:context-stroke;fill-rule:evenodd;stroke:context-stroke;stroke-width:1pt"
         d="M 0,0 5,-5 -12.5,0 5,5 Z"
         id="path37154" />
    </marker>
    <marker
       style="overflow:visible"
       id="Arrow2Lend"
       refX="0"
       refY="0"
       orient="auto"
       inkscape:stockid="Arrow2Lend"
       inkscape:isstock="true">
      <path
         transform="matrix(-1.1,0,0,-1.1,-1.1,0)"
         d="M 8.7185878,4.0337352 -2.2072895,0.01601326 8.7185884,-4.0017078 c -1.7454984,2.3720609 -1.7354408,5.6174519 -6e-7,8.035443 z"
         style="fill:context-stroke;fill-rule:evenodd;stroke:context-stroke;stroke-width:0.625;stroke-linejoin:round"
         id="path36803" />
    </marker>
    <marker
       style="overflow:visible"
       id="Arrow1Send"
       refX="0"
       refY="0"
       orient="auto"
       inkscape:stockid="Arrow1Send"
       inkscape:isstock="true">
      <path
         transform="matrix(-0.2,0,0,-0.2,-1.2,0)"
         style="fill:context-stroke;fill-rule:evenodd;stroke:context-stroke;stroke-width:1pt"
         d="M 0,0 5,-5 -12.5,0 5,5 Z"
         id="path36797" />
    </marker>
    <marker
       style="overflow:visible"
       id="Arrow1Mend"
       refX="0"
       refY="0"
       orient="auto"
       inkscape:stockid="Arrow1Mend"
       inkscape:isstock="true">
      <path
         transform="matrix(-0.4,0,0,-0.4,-4,0)"
         style="fill:context-stroke;fill-rule:evenodd;stroke:context-stroke;stroke-width:1pt"
         d="M 0,0 5,-5 -12.5,0 5,5 Z"
         id="path36791" />
    </marker>
    <marker
       style="overflow:visible"
       id="Arrow1Lend"
       refX="0"
       refY="0"
       orient="auto"
       inkscape:stockid="Arrow1Lend"
       inkscape:isstock="true">
      <path
         transform="matrix(-0.8,0,0,-0.8,-10,0)"
         style="fill:context-stroke;fill-rule:evenodd;stroke:context-stroke;stroke-width:1pt"
         d="M 0,0 5,-5 -12.5,0 5,5 Z"
         id="path36785" />
    </marker>
    <mask
       maskUnits="userSpaceOnUse"
       id="mask3088">
      <path
         id="path3090"
         style="fill:#5f8dd3;stroke:#000000;stroke-width:2.85697;stop-color:#000000"
         d="m 100.55009,301.79661 c 15.20086,41.7417 27.33757,78.32283 -1.38573,83.98576 C 70.441058,391.4453 11.222452,348.20963 -3.9784083,306.46793 -19.17927,264.72621 17.331708,245.16665 44.11717,234.62224 c 27.24141,-10.7239 41.232048,25.43265 56.43292,67.17437 z"
         sodipodi:nodetypes="sssss" />
    </mask>
    <mask
       maskUnits="userSpaceOnUse"
       id="mask3088-6">
      <path
         id="path3090-0"
         style="fill:#5f8dd3;stroke:#000000;stroke-width:2.85697;stop-color:#000000"
         d="m 100.55009,301.79661 c 15.20086,41.7417 27.33757,78.32283 -1.38573,83.98576 C 70.441058,391.4453 11.222452,348.20963 -3.9784083,306.46793 -19.17927,264.72621 17.331708,245.16665 44.11717,234.62224 c 27.24141,-10.7239 41.232048,25.43265 56.43292,67.17437 z"
         sodipodi:nodetypes="sssss" />
    </mask>
    <mask
       maskUnits="userSpaceOnUse"
       id="mask3088-6-2">
      <path
         id="path3090-0-6"
         style="fill:#5f8dd3;stroke:#000000;stroke-width:2.85697;stop-color:#000000"
         d="m 100.55009,301.79661 c 15.20086,41.7417 27.33757,78.32283 -1.38573,83.98576 C 70.441058,391.4453 11.222452,348.20963 -3.9784083,306.46793 -19.17927,264.72621 17.331708,245.16665 44.11717,234.62224 c 27.24141,-10.7239 41.232048,25.43265 56.43292,67.17437 z"
         sodipodi:nodetypes="sssss" />
    </mask>
    <mask
       maskUnits="userSpaceOnUse"
       id="mask3088-6-7">
      <path
         id="path3090-0-9"
         style="fill:#5f8dd3;stroke:#000000;stroke-width:2.85697;stop-color:#000000"
         d="m 100.55009,301.79661 c 15.20086,41.7417 27.33757,78.32283 -1.38573,83.98576 C 70.441058,391.4453 11.222452,348.20963 -3.9784083,306.46793 -19.17927,264.72621 17.331708,245.16665 44.11717,234.62224 c 27.24141,-10.7239 41.232048,25.43265 56.43292,67.17437 z"
         sodipodi:nodetypes="sssss" />
    </mask>
    <mask
       maskUnits="userSpaceOnUse"
       id="mask3088-6-23">
      <path
         id="path3090-0-7"
         style="fill:#5f8dd3;stroke:#000000;stroke-width:2.85697;stop-color:#000000"
         d="m 100.55009,301.79661 c 15.20086,41.7417 27.33757,78.32283 -1.38573,83.98576 C 70.441058,391.4453 11.222452,348.20963 -3.9784083,306.46793 -19.17927,264.72621 17.331708,245.16665 44.11717,234.62224 c 27.24141,-10.7239 41.232048,25.43265 56.43292,67.17437 z"
         sodipodi:nodetypes="sssss" />
    </mask>
    <g
       id="g195">
      <symbol
         overflow="visible"
         id="symbol4547">
        <path
           style="stroke:none"
           d=""
           id="path9426" />
      </symbol>
      <symbol
         overflow="visible"
         id="symbol9473">
        <path
           style="stroke:none"
           d="M 3.328125,-3.015625 C 3.390625,-3.265625 3.625,-4.1875 4.3125,-4.1875 c 0.046875,0 0.296875,0 0.5,0.125 C 4.53125,-4 4.34375,-3.765625 4.34375,-3.515625 c 0,0.15625 0.109375,0.34375 0.375,0.34375 0.21875,0 0.53125,-0.171875 0.53125,-0.578125 0,-0.515625 -0.578125,-0.65625 -0.921875,-0.65625 -0.578125,0 -0.921875,0.53125 -1.046875,0.75 -0.25,-0.65625 -0.78125,-0.75 -1.078125,-0.75 -1.03125,0 -1.609375,1.28125 -1.609375,1.53125 0,0.109375 0.109375,0.109375 0.125,0.109375 0.078125,0 0.109375,-0.03125 0.125,-0.109375 0.34375,-1.0625 1,-1.3125 1.34375,-1.3125 0.1875,0 0.53125,0.09375 0.53125,0.671875 0,0.3125 -0.171875,0.96875 -0.53125,2.375 -0.15625,0.609375 -0.515625,1.03125 -0.953125,1.03125 -0.0625,0 -0.28125,0 -0.5,-0.125 0.25,-0.0625 0.46875,-0.265625 0.46875,-0.546875 0,-0.265625 -0.21875,-0.34375 -0.359375,-0.34375 -0.3125,0 -0.546875,0.25 -0.546875,0.578125 0,0.453125 0.484375,0.65625 0.921875,0.65625 0.671875,0 1.03125,-0.703125 1.046875,-0.75 0.125,0.359375 0.484375,0.75 1.078125,0.75 1.03125,0 1.59375,-1.28125 1.59375,-1.53125 0,-0.109375 -0.078125,-0.109375 -0.109375,-0.109375 -0.09375,0 -0.109375,0.046875 -0.140625,0.109375 -0.328125,1.078125 -1,1.3125 -1.3125,1.3125 -0.390625,0 -0.546875,-0.3125 -0.546875,-0.65625 0,-0.21875 0.046875,-0.4375 0.15625,-0.875 z m 0,0"
           id="path30" />
      </symbol>
      <symbol
         overflow="visible"
         id="symbol8235">
        <path
           style="stroke:none"
           d=""
           id="path616" />
      </symbol>
      <symbol
         overflow="visible"
         id="symbol9310">
        <path
           style="stroke:none"
           d="m 2.328125,-4.4375 c 0,-0.1875 0,-0.1875 -0.203125,-0.1875 -0.453125,0.4375 -1.078125,0.4375 -1.359375,0.4375 v 0.25 c 0.15625,0 0.625,0 1,-0.1875 v 3.546875 c 0,0.234375 0,0.328125 -0.6875,0.328125 H 0.8125 V 0 c 0.125,0 0.984375,-0.03125 1.234375,-0.03125 0.21875,0 1.09375,0.03125 1.25,0.03125 V -0.25 H 3.03125 c -0.703125,0 -0.703125,-0.09375 -0.703125,-0.328125 z m 0,0"
           id="path1111" />
      </symbol>
    </g>
    <g
       id="g1938">
      <symbol
         overflow="visible"
         id="symbol500">
        <path
           style="stroke:none"
           d=""
           id="path9720" />
      </symbol>
      <symbol
         overflow="visible"
         id="symbol7812">
        <path
           style="stroke:none"
           d="M 3.328125,-3.015625 C 3.390625,-3.265625 3.625,-4.1875 4.3125,-4.1875 c 0.046875,0 0.296875,0 0.5,0.125 C 4.53125,-4 4.34375,-3.765625 4.34375,-3.515625 c 0,0.15625 0.109375,0.34375 0.375,0.34375 0.21875,0 0.53125,-0.171875 0.53125,-0.578125 0,-0.515625 -0.578125,-0.65625 -0.921875,-0.65625 -0.578125,0 -0.921875,0.53125 -1.046875,0.75 -0.25,-0.65625 -0.78125,-0.75 -1.078125,-0.75 -1.03125,0 -1.609375,1.28125 -1.609375,1.53125 0,0.109375 0.109375,0.109375 0.125,0.109375 0.078125,0 0.109375,-0.03125 0.125,-0.109375 0.34375,-1.0625 1,-1.3125 1.34375,-1.3125 0.1875,0 0.53125,0.09375 0.53125,0.671875 0,0.3125 -0.171875,0.96875 -0.53125,2.375 -0.15625,0.609375 -0.515625,1.03125 -0.953125,1.03125 -0.0625,0 -0.28125,0 -0.5,-0.125 0.25,-0.0625 0.46875,-0.265625 0.46875,-0.546875 0,-0.265625 -0.21875,-0.34375 -0.359375,-0.34375 -0.3125,0 -0.546875,0.25 -0.546875,0.578125 0,0.453125 0.484375,0.65625 0.921875,0.65625 0.671875,0 1.03125,-0.703125 1.046875,-0.75 0.125,0.359375 0.484375,0.75 1.078125,0.75 1.03125,0 1.59375,-1.28125 1.59375,-1.53125 0,-0.109375 -0.078125,-0.109375 -0.109375,-0.109375 -0.09375,0 -0.109375,0.046875 -0.140625,0.109375 -0.328125,1.078125 -1,1.3125 -1.3125,1.3125 -0.390625,0 -0.546875,-0.3125 -0.546875,-0.65625 0,-0.21875 0.046875,-0.4375 0.15625,-0.875 z m 0,0"
           id="path8760" />
      </symbol>
      <symbol
         overflow="visible"
         id="symbol7598">
        <path
           style="stroke:none"
           d=""
           id="path4734" />
      </symbol>
      <symbol
         overflow="visible"
         id="symbol1304">
        <path
           style="stroke:none"
           d="M 2.46875,-5.21875 C 1.15625,-4.296875 0.796875,-2.8125 0.796875,-1.75 c 0,0.984375 0.296875,2.515625 1.671875,3.484375 0.0625,0 0.140625,0 0.140625,-0.078125 0,-0.046875 -0.015625,-0.0625 -0.0625,-0.109375 C 1.609375,0.703125 1.28125,-0.46875 1.28125,-1.734375 1.28125,-3.625 2,-4.546875 2.5625,-5.0625 2.59375,-5.09375 2.609375,-5.109375 2.609375,-5.140625 2.609375,-5.21875 2.53125,-5.21875 2.46875,-5.21875 Z m 0,0"
           id="path9328" />
      </symbol>
      <symbol
         overflow="visible"
         id="symbol8353">
        <path
           style="stroke:none"
           d="m 2.328125,-4.4375 c 0,-0.1875 0,-0.1875 -0.203125,-0.1875 -0.453125,0.4375 -1.078125,0.4375 -1.359375,0.4375 v 0.25 c 0.15625,0 0.625,0 1,-0.1875 v 3.546875 c 0,0.234375 0,0.328125 -0.6875,0.328125 H 0.8125 V 0 c 0.125,0 0.984375,-0.03125 1.234375,-0.03125 0.21875,0 1.09375,0.03125 1.25,0.03125 V -0.25 H 3.03125 c -0.703125,0 -0.703125,-0.09375 -0.703125,-0.328125 z m 0,0"
           id="path5825" />
      </symbol>
      <symbol
         overflow="visible"
         id="symbol5370">
        <path
           style="stroke:none"
           d="m 0.625,-5.21875 c -0.046875,0 -0.125,0 -0.125,0.078125 0,0.03125 0.015625,0.046875 0.0625,0.109375 0.59375,0.546875 1.265625,1.484375 1.265625,3.28125 0,1.453125 -0.453125,2.5625 -1.203125,3.234375 -0.125,0.125 -0.125,0.125 -0.125,0.171875 0,0.03125 0.015625,0.078125 0.078125,0.078125 0.09375,0 0.75,-0.453125 1.21875,-1.328125 0.296875,-0.578125 0.5,-1.328125 0.5,-2.140625 C 2.296875,-2.71875 2,-4.25 0.625,-5.21875 Z m 0,0"
           id="path9950" />
      </symbol>
    </g>
    <g
       id="g1289">
      <symbol
         overflow="visible"
         id="symbol6328">
        <path
           style="stroke:none"
           d=""
           id="path3867" />
      </symbol>
      <symbol
         overflow="visible"
         id="symbol6342">
        <path
           style="stroke:none"
           d="m 5.34375,-4 c -0.359375,0.109375 -0.53125,0.4375 -0.53125,0.6875 0,0.21875 0.15625,0.46875 0.484375,0.46875 0.359375,0 0.71875,-0.296875 0.71875,-0.78125 C 6.015625,-4.15625 5.5,-4.5 4.890625,-4.5 4.3125,-4.5 3.953125,-4.078125 3.8125,-3.890625 3.5625,-4.3125 3.015625,-4.5 2.4375,-4.5 c -1.25,0 -1.921875,1.21875 -1.921875,1.546875 0,0.140625 0.140625,0.140625 0.234375,0.140625 0.125,0 0.1875,0 0.234375,-0.125 0.28125,-0.90625 1,-1.203125 1.40625,-1.203125 0.375,0 0.5625,0.171875 0.5625,0.484375 0,0.203125 -0.140625,0.75 -0.234375,1.109375 L 2.375,-1.1875 c -0.140625,0.609375 -0.5,0.90625 -0.84375,0.90625 -0.046875,0 -0.28125,0 -0.46875,-0.140625 0.359375,-0.109375 0.53125,-0.453125 0.53125,-0.6875 0,-0.21875 -0.171875,-0.46875 -0.5,-0.46875 -0.34375,0 -0.71875,0.296875 -0.71875,0.78125 0,0.53125 0.53125,0.875 1.140625,0.875 0.5625,0 0.9375,-0.421875 1.0625,-0.609375 0.25,0.421875 0.8125,0.609375 1.375,0.609375 1.265625,0 1.9375,-1.21875 1.9375,-1.546875 0,-0.140625 -0.15625,-0.140625 -0.234375,-0.140625 -0.125,0 -0.1875,0 -0.234375,0.125 -0.28125,0.90625 -1,1.203125 -1.421875,1.203125 -0.375,0 -0.546875,-0.171875 -0.546875,-0.5 0,-0.203125 0.125,-0.734375 0.21875,-1.109375 0.0625,-0.25 0.296875,-1.1875 0.34375,-1.34375 0.15625,-0.609375 0.5,-0.90625 0.84375,-0.90625 0.0625,0 0.28125,0 0.484375,0.140625 z m 0,0"
           id="path7690" />
      </symbol>
      <symbol
         overflow="visible"
         id="symbol6518">
        <path
           style="stroke:none"
           d=""
           id="path6394" />
      </symbol>
      <symbol
         overflow="visible"
         id="symbol1284">
        <path
           style="stroke:none"
           d="M 2.46875,-5.21875 C 1.15625,-4.296875 0.796875,-2.8125 0.796875,-1.75 c 0,0.984375 0.296875,2.515625 1.671875,3.484375 0.0625,0 0.140625,0 0.140625,-0.078125 0,-0.046875 -0.015625,-0.0625 -0.0625,-0.109375 C 1.609375,0.703125 1.28125,-0.46875 1.28125,-1.734375 1.28125,-3.625 2,-4.546875 2.5625,-5.0625 2.59375,-5.09375 2.609375,-5.109375 2.609375,-5.140625 2.609375,-5.21875 2.53125,-5.21875 2.46875,-5.21875 Z m 0,0"
           id="path9932" />
      </symbol>
      <symbol
         overflow="visible"
         id="symbol9600">
        <path
           style="stroke:none"
           d="m 2.328125,-4.4375 c 0,-0.1875 0,-0.1875 -0.203125,-0.1875 -0.453125,0.4375 -1.078125,0.4375 -1.359375,0.4375 v 0.25 c 0.15625,0 0.625,0 1,-0.1875 v 3.546875 c 0,0.234375 0,0.328125 -0.6875,0.328125 H 0.8125 V 0 c 0.125,0 0.984375,-0.03125 1.234375,-0.03125 0.21875,0 1.09375,0.03125 1.25,0.03125 V -0.25 H 3.03125 c -0.703125,0 -0.703125,-0.09375 -0.703125,-0.328125 z m 0,0"
           id="path2785" />
      </symbol>
      <symbol
         overflow="visible"
         id="symbol7675">
        <path
           style="stroke:none"
           d="m 0.625,-5.21875 c -0.046875,0 -0.125,0 -0.125,0.078125 0,0.03125 0.015625,0.046875 0.0625,0.109375 0.59375,0.546875 1.265625,1.484375 1.265625,3.28125 0,1.453125 -0.453125,2.5625 -1.203125,3.234375 -0.125,0.125 -0.125,0.125 -0.125,0.171875 0,0.03125 0.015625,0.078125 0.078125,0.078125 0.09375,0 0.75,-0.453125 1.21875,-1.328125 0.296875,-0.578125 0.5,-1.328125 0.5,-2.140625 C 2.296875,-2.71875 2,-4.25 0.625,-5.21875 Z m 0,0"
           id="path7831" />
      </symbol>
    </g>
    <g
       id="g9121">
      <symbol
         overflow="visible"
         id="symbol5929">
        <path
           style="stroke:none"
           d=""
           id="path9532" />
      </symbol>
      <symbol
         overflow="visible"
         id="symbol3766">
        <path
           style="stroke:none"
           d="m 5.34375,-4 c -0.359375,0.109375 -0.53125,0.4375 -0.53125,0.6875 0,0.21875 0.15625,0.46875 0.484375,0.46875 0.359375,0 0.71875,-0.296875 0.71875,-0.78125 C 6.015625,-4.15625 5.5,-4.5 4.890625,-4.5 4.3125,-4.5 3.953125,-4.078125 3.8125,-3.890625 3.5625,-4.3125 3.015625,-4.5 2.4375,-4.5 c -1.25,0 -1.921875,1.21875 -1.921875,1.546875 0,0.140625 0.140625,0.140625 0.234375,0.140625 0.125,0 0.1875,0 0.234375,-0.125 0.28125,-0.90625 1,-1.203125 1.40625,-1.203125 0.375,0 0.5625,0.171875 0.5625,0.484375 0,0.203125 -0.140625,0.75 -0.234375,1.109375 L 2.375,-1.1875 c -0.140625,0.609375 -0.5,0.90625 -0.84375,0.90625 -0.046875,0 -0.28125,0 -0.46875,-0.140625 0.359375,-0.109375 0.53125,-0.453125 0.53125,-0.6875 0,-0.21875 -0.171875,-0.46875 -0.5,-0.46875 -0.34375,0 -0.71875,0.296875 -0.71875,0.78125 0,0.53125 0.53125,0.875 1.140625,0.875 0.5625,0 0.9375,-0.421875 1.0625,-0.609375 0.25,0.421875 0.8125,0.609375 1.375,0.609375 1.265625,0 1.9375,-1.21875 1.9375,-1.546875 0,-0.140625 -0.15625,-0.140625 -0.234375,-0.140625 -0.125,0 -0.1875,0 -0.234375,0.125 -0.28125,0.90625 -1,1.203125 -1.421875,1.203125 -0.375,0 -0.546875,-0.171875 -0.546875,-0.5 0,-0.203125 0.125,-0.734375 0.21875,-1.109375 0.0625,-0.25 0.296875,-1.1875 0.34375,-1.34375 0.15625,-0.609375 0.5,-0.90625 0.84375,-0.90625 0.0625,0 0.28125,0 0.484375,0.140625 z m 0,0"
           id="path1457" />
      </symbol>
      <symbol
         overflow="visible"
         id="symbol6925">
        <path
           style="stroke:none"
           d=""
           id="path7968" />
      </symbol>
      <symbol
         overflow="visible"
         id="symbol566">
        <path
           style="stroke:none"
           d="M 2.46875,-5.21875 C 1.15625,-4.296875 0.796875,-2.8125 0.796875,-1.75 c 0,0.984375 0.296875,2.515625 1.671875,3.484375 0.0625,0 0.140625,0 0.140625,-0.078125 0,-0.046875 -0.015625,-0.0625 -0.0625,-0.109375 C 1.609375,0.703125 1.28125,-0.46875 1.28125,-1.734375 1.28125,-3.625 2,-4.546875 2.5625,-5.0625 2.59375,-5.09375 2.609375,-5.109375 2.609375,-5.140625 2.609375,-5.21875 2.53125,-5.21875 2.46875,-5.21875 Z m 0,0"
           id="path4664" />
      </symbol>
      <symbol
         overflow="visible"
         id="symbol7937">
        <path
           style="stroke:none"
           d="M 3.515625,-1.265625 H 3.28125 c -0.015625,0.15625 -0.09375,0.5625 -0.1875,0.625 C 3.046875,-0.59375 2.515625,-0.59375 2.40625,-0.59375 H 1.125 c 0.734375,-0.640625 0.984375,-0.84375 1.390625,-1.171875 0.515625,-0.40625 1,-0.84375 1,-1.5 0,-0.84375 -0.734375,-1.359375 -1.625,-1.359375 -0.859375,0 -1.453125,0.609375 -1.453125,1.25 0,0.34375 0.296875,0.390625 0.375,0.390625 0.15625,0 0.359375,-0.125 0.359375,-0.375 0,-0.125 -0.046875,-0.375 -0.40625,-0.375 C 0.984375,-4.21875 1.453125,-4.375 1.78125,-4.375 c 0.703125,0 1.0625,0.546875 1.0625,1.109375 0,0.609375 -0.4375,1.078125 -0.65625,1.328125 L 0.515625,-0.265625 C 0.4375,-0.203125 0.4375,-0.1875 0.4375,0 h 2.875 z m 0,0"
           id="path4480" />
      </symbol>
      <symbol
         overflow="visible"
         id="symbol3387">
        <path
           style="stroke:none"
           d="m 0.625,-5.21875 c -0.046875,0 -0.125,0 -0.125,0.078125 0,0.03125 0.015625,0.046875 0.0625,0.109375 0.59375,0.546875 1.265625,1.484375 1.265625,3.28125 0,1.453125 -0.453125,2.5625 -1.203125,3.234375 -0.125,0.125 -0.125,0.125 -0.125,0.171875 0,0.03125 0.015625,0.078125 0.078125,0.078125 0.09375,0 0.75,-0.453125 1.21875,-1.328125 0.296875,-0.578125 0.5,-1.328125 0.5,-2.140625 C 2.296875,-2.71875 2,-4.25 0.625,-5.21875 Z m 0,0"
           id="path6509" />
      </symbol>
    </g>
    <g
       id="g419">
      <symbol
         overflow="visible"
         id="symbol1427">
        <path
           style="stroke:none"
           d=""
           id="path8587" />
      </symbol>
      <symbol
         overflow="visible"
         id="symbol5395">
        <path
           style="stroke:none"
           d="m 5.34375,-4 c -0.359375,0.109375 -0.53125,0.4375 -0.53125,0.6875 0,0.21875 0.15625,0.46875 0.484375,0.46875 0.359375,0 0.71875,-0.296875 0.71875,-0.78125 C 6.015625,-4.15625 5.5,-4.5 4.890625,-4.5 4.3125,-4.5 3.953125,-4.078125 3.8125,-3.890625 3.5625,-4.3125 3.015625,-4.5 2.4375,-4.5 c -1.25,0 -1.921875,1.21875 -1.921875,1.546875 0,0.140625 0.140625,0.140625 0.234375,0.140625 0.125,0 0.1875,0 0.234375,-0.125 0.28125,-0.90625 1,-1.203125 1.40625,-1.203125 0.375,0 0.5625,0.171875 0.5625,0.484375 0,0.203125 -0.140625,0.75 -0.234375,1.109375 L 2.375,-1.1875 c -0.140625,0.609375 -0.5,0.90625 -0.84375,0.90625 -0.046875,0 -0.28125,0 -0.46875,-0.140625 0.359375,-0.109375 0.53125,-0.453125 0.53125,-0.6875 0,-0.21875 -0.171875,-0.46875 -0.5,-0.46875 -0.34375,0 -0.71875,0.296875 -0.71875,0.78125 0,0.53125 0.53125,0.875 1.140625,0.875 0.5625,0 0.9375,-0.421875 1.0625,-0.609375 0.25,0.421875 0.8125,0.609375 1.375,0.609375 1.265625,0 1.9375,-1.21875 1.9375,-1.546875 0,-0.140625 -0.15625,-0.140625 -0.234375,-0.140625 -0.125,0 -0.1875,0 -0.234375,0.125 -0.28125,0.90625 -1,1.203125 -1.421875,1.203125 -0.375,0 -0.546875,-0.171875 -0.546875,-0.5 0,-0.203125 0.125,-0.734375 0.21875,-1.109375 0.0625,-0.25 0.296875,-1.1875 0.34375,-1.34375 0.15625,-0.609375 0.5,-0.90625 0.84375,-0.90625 0.0625,0 0.28125,0 0.484375,0.140625 z m 0,0"
           id="path3963" />
      </symbol>
      <symbol
         overflow="visible"
         id="symbol1744">
        <path
           style="stroke:none"
           d=""
           id="path381" />
      </symbol>
      <symbol
         overflow="visible"
         id="symbol3792">
        <path
           style="stroke:none"
           d="M 2.46875,-5.21875 C 1.15625,-4.296875 0.796875,-2.8125 0.796875,-1.75 c 0,0.984375 0.296875,2.515625 1.671875,3.484375 0.0625,0 0.140625,0 0.140625,-0.078125 0,-0.046875 -0.015625,-0.0625 -0.0625,-0.109375 C 1.609375,0.703125 1.28125,-0.46875 1.28125,-1.734375 1.28125,-3.625 2,-4.546875 2.5625,-5.0625 2.59375,-5.09375 2.609375,-5.109375 2.609375,-5.140625 2.609375,-5.21875 2.53125,-5.21875 2.46875,-5.21875 Z m 0,0"
           id="path3545" />
      </symbol>
      <symbol
         overflow="visible"
         id="symbol5433">
        <path
           style="stroke:none"
           d="m 1.90625,-2.328125 c 0.546875,0 0.9375,0.375 0.9375,1.125 0,0.859375 -0.515625,1.125 -0.90625,1.125 -0.28125,0 -0.90625,-0.078125 -1.1875,-0.5 0.328125,0 0.40625,-0.234375 0.40625,-0.390625 0,-0.21875 -0.171875,-0.375 -0.390625,-0.375 -0.1875,0 -0.390625,0.125 -0.390625,0.40625 0,0.65625 0.71875,1.078125 1.5625,1.078125 0.96875,0 1.640625,-0.65625 1.640625,-1.34375 0,-0.546875 -0.4375,-1.09375 -1.203125,-1.25 0.71875,-0.265625 0.984375,-0.78125 0.984375,-1.21875 0,-0.546875 -0.625,-0.953125 -1.40625,-0.953125 -0.765625,0 -1.359375,0.375 -1.359375,0.9375 0,0.234375 0.15625,0.359375 0.359375,0.359375 0.21875,0 0.359375,-0.15625 0.359375,-0.34375 0,-0.203125 -0.140625,-0.359375 -0.359375,-0.375 0.25,-0.296875 0.71875,-0.375 0.984375,-0.375 0.3125,0 0.75,0.15625 0.75,0.75 0,0.296875 -0.09375,0.625 -0.28125,0.828125 -0.21875,0.265625 -0.421875,0.28125 -0.765625,0.3125 -0.171875,0.015625 -0.1875,0.015625 -0.21875,0.015625 -0.015625,0 -0.078125,0.015625 -0.078125,0.09375 0,0.09375 0.0625,0.09375 0.1875,0.09375 z m 0,0"
           id="path5074" />
      </symbol>
      <symbol
         overflow="visible"
         id="symbol6017">
        <path
           style="stroke:none"
           d="m 0.625,-5.21875 c -0.046875,0 -0.125,0 -0.125,0.078125 0,0.03125 0.015625,0.046875 0.0625,0.109375 0.59375,0.546875 1.265625,1.484375 1.265625,3.28125 0,1.453125 -0.453125,2.5625 -1.203125,3.234375 -0.125,0.125 -0.125,0.125 -0.125,0.171875 0,0.03125 0.015625,0.078125 0.078125,0.078125 0.09375,0 0.75,-0.453125 1.21875,-1.328125 0.296875,-0.578125 0.5,-1.328125 0.5,-2.140625 C 2.296875,-2.71875 2,-4.25 0.625,-5.21875 Z m 0,0"
           id="path805" />
      </symbol>
    </g>
    <g
       id="g7661">
      <symbol
         overflow="visible"
         id="symbol9404">
        <path
           style="stroke:none"
           d=""
           id="path1176" />
      </symbol>
      <symbol
         overflow="visible"
         id="symbol2639">
        <path
           style="stroke:none"
           d="m 5.34375,-4 c -0.359375,0.109375 -0.53125,0.4375 -0.53125,0.6875 0,0.21875 0.15625,0.46875 0.484375,0.46875 0.359375,0 0.71875,-0.296875 0.71875,-0.78125 C 6.015625,-4.15625 5.5,-4.5 4.890625,-4.5 4.3125,-4.5 3.953125,-4.078125 3.8125,-3.890625 3.5625,-4.3125 3.015625,-4.5 2.4375,-4.5 c -1.25,0 -1.921875,1.21875 -1.921875,1.546875 0,0.140625 0.140625,0.140625 0.234375,0.140625 0.125,0 0.1875,0 0.234375,-0.125 0.28125,-0.90625 1,-1.203125 1.40625,-1.203125 0.375,0 0.5625,0.171875 0.5625,0.484375 0,0.203125 -0.140625,0.75 -0.234375,1.109375 L 2.375,-1.1875 c -0.140625,0.609375 -0.5,0.90625 -0.84375,0.90625 -0.046875,0 -0.28125,0 -0.46875,-0.140625 0.359375,-0.109375 0.53125,-0.453125 0.53125,-0.6875 0,-0.21875 -0.171875,-0.46875 -0.5,-0.46875 -0.34375,0 -0.71875,0.296875 -0.71875,0.78125 0,0.53125 0.53125,0.875 1.140625,0.875 0.5625,0 0.9375,-0.421875 1.0625,-0.609375 0.25,0.421875 0.8125,0.609375 1.375,0.609375 1.265625,0 1.9375,-1.21875 1.9375,-1.546875 0,-0.140625 -0.15625,-0.140625 -0.234375,-0.140625 -0.125,0 -0.1875,0 -0.234375,0.125 -0.28125,0.90625 -1,1.203125 -1.421875,1.203125 -0.375,0 -0.546875,-0.171875 -0.546875,-0.5 0,-0.203125 0.125,-0.734375 0.21875,-1.109375 0.0625,-0.25 0.296875,-1.1875 0.34375,-1.34375 0.15625,-0.609375 0.5,-0.90625 0.84375,-0.90625 0.0625,0 0.28125,0 0.484375,0.140625 z m 0,0"
           id="path798" />
      </symbol>
      <symbol
         overflow="visible"
         id="symbol3163">
        <path
           style="stroke:none"
           d=""
           id="path767" />
      </symbol>
      <symbol
         overflow="visible"
         id="symbol351">
        <path
           style="stroke:none"
           d="M 2.46875,-5.21875 C 1.15625,-4.296875 0.796875,-2.8125 0.796875,-1.75 c 0,0.984375 0.296875,2.515625 1.671875,3.484375 0.0625,0 0.140625,0 0.140625,-0.078125 0,-0.046875 -0.015625,-0.0625 -0.0625,-0.109375 C 1.609375,0.703125 1.28125,-0.46875 1.28125,-1.734375 1.28125,-3.625 2,-4.546875 2.5625,-5.0625 2.59375,-5.09375 2.609375,-5.109375 2.609375,-5.140625 2.609375,-5.21875 2.53125,-5.21875 2.46875,-5.21875 Z m 0,0"
           id="path830" />
      </symbol>
      <symbol
         overflow="visible"
         id="symbol9763">
        <path
           style="stroke:none"
           d="m 3.6875,-1.140625 v -0.25 H 2.90625 V -4.5 c 0,-0.140625 0,-0.203125 -0.140625,-0.203125 -0.09375,0 -0.125,0 -0.1875,0.109375 l -2.3125,3.203125 v 0.25 h 2.0625 v 0.5625 c 0,0.25 0,0.328125 -0.578125,0.328125 H 1.5625 V 0 C 1.921875,-0.015625 2.359375,-0.03125 2.609375,-0.03125 2.875,-0.03125 3.3125,-0.015625 3.671875,0 v -0.25 h -0.1875 C 2.90625,-0.25 2.90625,-0.328125 2.90625,-0.578125 v -0.5625 z M 2.375,-3.9375 v 2.546875 H 0.53125 Z m 0,0"
           id="path5738" />
      </symbol>
      <symbol
         overflow="visible"
         id="symbol4417">
        <path
           style="stroke:none"
           d="m 0.625,-5.21875 c -0.046875,0 -0.125,0 -0.125,0.078125 0,0.03125 0.015625,0.046875 0.0625,0.109375 0.59375,0.546875 1.265625,1.484375 1.265625,3.28125 0,1.453125 -0.453125,2.5625 -1.203125,3.234375 -0.125,0.125 -0.125,0.125 -0.125,0.171875 0,0.03125 0.015625,0.078125 0.078125,0.078125 0.09375,0 0.75,-0.453125 1.21875,-1.328125 0.296875,-0.578125 0.5,-1.328125 0.5,-2.140625 C 2.296875,-2.71875 2,-4.25 0.625,-5.21875 Z m 0,0"
           id="path7000" />
      </symbol>
    </g>
    <g
       id="g363">
      <symbol
         overflow="visible"
         id="symbol7526">
        <path
           style="stroke:none"
           d=""
           id="path1462" />
      </symbol>
      <symbol
         overflow="visible"
         id="symbol5209">
        <path
           style="stroke:none"
           d="m 5.34375,-4 c -0.359375,0.109375 -0.53125,0.4375 -0.53125,0.6875 0,0.21875 0.15625,0.46875 0.484375,0.46875 0.359375,0 0.71875,-0.296875 0.71875,-0.78125 C 6.015625,-4.15625 5.5,-4.5 4.890625,-4.5 4.3125,-4.5 3.953125,-4.078125 3.8125,-3.890625 3.5625,-4.3125 3.015625,-4.5 2.4375,-4.5 c -1.25,0 -1.921875,1.21875 -1.921875,1.546875 0,0.140625 0.140625,0.140625 0.234375,0.140625 0.125,0 0.1875,0 0.234375,-0.125 0.28125,-0.90625 1,-1.203125 1.40625,-1.203125 0.375,0 0.5625,0.171875 0.5625,0.484375 0,0.203125 -0.140625,0.75 -0.234375,1.109375 L 2.375,-1.1875 c -0.140625,0.609375 -0.5,0.90625 -0.84375,0.90625 -0.046875,0 -0.28125,0 -0.46875,-0.140625 0.359375,-0.109375 0.53125,-0.453125 0.53125,-0.6875 0,-0.21875 -0.171875,-0.46875 -0.5,-0.46875 -0.34375,0 -0.71875,0.296875 -0.71875,0.78125 0,0.53125 0.53125,0.875 1.140625,0.875 0.5625,0 0.9375,-0.421875 1.0625,-0.609375 0.25,0.421875 0.8125,0.609375 1.375,0.609375 1.265625,0 1.9375,-1.21875 1.9375,-1.546875 0,-0.140625 -0.15625,-0.140625 -0.234375,-0.140625 -0.125,0 -0.1875,0 -0.234375,0.125 -0.28125,0.90625 -1,1.203125 -1.421875,1.203125 -0.375,0 -0.546875,-0.171875 -0.546875,-0.5 0,-0.203125 0.125,-0.734375 0.21875,-1.109375 0.0625,-0.25 0.296875,-1.1875 0.34375,-1.34375 0.15625,-0.609375 0.5,-0.90625 0.84375,-0.90625 0.0625,0 0.28125,0 0.484375,0.140625 z m 0,0"
           id="path9446" />
      </symbol>
      <symbol
         overflow="visible"
         id="symbol355">
        <path
           style="stroke:none"
           d=""
           id="path3770" />
      </symbol>
      <symbol
         overflow="visible"
         id="symbol6470">
        <path
           style="stroke:none"
           d="M 2.46875,-5.21875 C 1.15625,-4.296875 0.796875,-2.8125 0.796875,-1.75 c 0,0.984375 0.296875,2.515625 1.671875,3.484375 0.0625,0 0.140625,0 0.140625,-0.078125 0,-0.046875 -0.015625,-0.0625 -0.0625,-0.109375 C 1.609375,0.703125 1.28125,-0.46875 1.28125,-1.734375 1.28125,-3.625 2,-4.546875 2.5625,-5.0625 2.59375,-5.09375 2.609375,-5.109375 2.609375,-5.140625 2.609375,-5.21875 2.53125,-5.21875 2.46875,-5.21875 Z m 0,0"
           id="path357" />
      </symbol>
      <symbol
         overflow="visible"
         id="symbol1746">
        <path
           style="stroke:none"
           d="m 1.078125,-3.890625 c 0.359375,0.09375 0.5625,0.09375 0.671875,0.09375 0.921875,0 1.46875,-0.625 1.46875,-0.734375 0,-0.078125 -0.046875,-0.09375 -0.078125,-0.09375 -0.015625,0 -0.03125,0 -0.0625,0.015625 -0.171875,0.0625 -0.53125,0.203125 -1.046875,0.203125 -0.203125,0 -0.5625,-0.015625 -1.015625,-0.1875 C 0.9375,-4.625 0.921875,-4.625 0.921875,-4.625 c -0.09375,0 -0.09375,0.078125 -0.09375,0.1875 v 2.046875 c 0,0.125 0,0.203125 0.109375,0.203125 0.0625,0 0.078125,0 0.140625,-0.09375 0.296875,-0.375 0.734375,-0.4375 0.96875,-0.4375 0.421875,0 0.609375,0.328125 0.640625,0.390625 0.125,0.234375 0.171875,0.5 0.171875,0.90625 0,0.203125 0,0.609375 -0.21875,0.921875 -0.171875,0.25 -0.46875,0.421875 -0.8125,0.421875 -0.453125,0 -0.921875,-0.25 -1.09375,-0.71875 0.265625,0.015625 0.40625,-0.15625 0.40625,-0.34375 0,-0.296875 -0.265625,-0.34375 -0.359375,-0.34375 0,0 -0.34375,0 -0.34375,0.375 0,0.625 0.578125,1.25 1.40625,1.25 0.890625,0 1.671875,-0.65625 1.671875,-1.546875 0,-0.78125 -0.59375,-1.5 -1.453125,-1.5 -0.3125,0 -0.671875,0.0625 -0.984375,0.328125 z m 0,0"
           id="path500" />
      </symbol>
      <symbol
         overflow="visible"
         id="symbol6916">
        <path
           style="stroke:none"
           d="m 0.625,-5.21875 c -0.046875,0 -0.125,0 -0.125,0.078125 0,0.03125 0.015625,0.046875 0.0625,0.109375 0.59375,0.546875 1.265625,1.484375 1.265625,3.28125 0,1.453125 -0.453125,2.5625 -1.203125,3.234375 -0.125,0.125 -0.125,0.125 -0.125,0.171875 0,0.03125 0.015625,0.078125 0.078125,0.078125 0.09375,0 0.75,-0.453125 1.21875,-1.328125 0.296875,-0.578125 0.5,-1.328125 0.5,-2.140625 C 2.296875,-2.71875 2,-4.25 0.625,-5.21875 Z m 0,0"
           id="path3695" />
      </symbol>
    </g>
    <g
       id="g2393">
      <symbol
         overflow="visible"
         id="symbol5585">
        <path
           style="stroke:none"
           d=""
           id="path3784" />
      </symbol>
      <symbol
         overflow="visible"
         id="symbol3036">
        <path
           style="stroke:none"
           d="m 5.34375,-4 c -0.359375,0.109375 -0.53125,0.4375 -0.53125,0.6875 0,0.21875 0.15625,0.46875 0.484375,0.46875 0.359375,0 0.71875,-0.296875 0.71875,-0.78125 C 6.015625,-4.15625 5.5,-4.5 4.890625,-4.5 4.3125,-4.5 3.953125,-4.078125 3.8125,-3.890625 3.5625,-4.3125 3.015625,-4.5 2.4375,-4.5 c -1.25,0 -1.921875,1.21875 -1.921875,1.546875 0,0.140625 0.140625,0.140625 0.234375,0.140625 0.125,0 0.1875,0 0.234375,-0.125 0.28125,-0.90625 1,-1.203125 1.40625,-1.203125 0.375,0 0.5625,0.171875 0.5625,0.484375 0,0.203125 -0.140625,0.75 -0.234375,1.109375 L 2.375,-1.1875 c -0.140625,0.609375 -0.5,0.90625 -0.84375,0.90625 -0.046875,0 -0.28125,0 -0.46875,-0.140625 0.359375,-0.109375 0.53125,-0.453125 0.53125,-0.6875 0,-0.21875 -0.171875,-0.46875 -0.5,-0.46875 -0.34375,0 -0.71875,0.296875 -0.71875,0.78125 0,0.53125 0.53125,0.875 1.140625,0.875 0.5625,0 0.9375,-0.421875 1.0625,-0.609375 0.25,0.421875 0.8125,0.609375 1.375,0.609375 1.265625,0 1.9375,-1.21875 1.9375,-1.546875 0,-0.140625 -0.15625,-0.140625 -0.234375,-0.140625 -0.125,0 -0.1875,0 -0.234375,0.125 -0.28125,0.90625 -1,1.203125 -1.421875,1.203125 -0.375,0 -0.546875,-0.171875 -0.546875,-0.5 0,-0.203125 0.125,-0.734375 0.21875,-1.109375 0.0625,-0.25 0.296875,-1.1875 0.34375,-1.34375 0.15625,-0.609375 0.5,-0.90625 0.84375,-0.90625 0.0625,0 0.28125,0 0.484375,0.140625 z m 0,0"
           id="path3872" />
      </symbol>
      <symbol
         overflow="visible"
         id="symbol35390">
        <path
           style="stroke:none"
           d=""
           id="path4448" />
      </symbol>
      <symbol
         overflow="visible"
         id="symbol617">
        <path
           style="stroke:none"
           d="M 2.46875,-5.21875 C 1.15625,-4.296875 0.796875,-2.8125 0.796875,-1.75 c 0,0.984375 0.296875,2.515625 1.671875,3.484375 0.0625,0 0.140625,0 0.140625,-0.078125 0,-0.046875 -0.015625,-0.0625 -0.0625,-0.109375 C 1.609375,0.703125 1.28125,-0.46875 1.28125,-1.734375 1.28125,-3.625 2,-4.546875 2.5625,-5.0625 2.59375,-5.09375 2.609375,-5.109375 2.609375,-5.140625 2.609375,-5.21875 2.53125,-5.21875 2.46875,-5.21875 Z m 0,0"
           id="path8091" />
      </symbol>
      <symbol
         overflow="visible"
         id="symbol663">
        <path
           style="stroke:none"
           d="m 1.046875,-2.28125 c 0,-0.5625 0.046875,-1.078125 0.3125,-1.515625 0.234375,-0.375 0.609375,-0.625 1.0625,-0.625 0.203125,0 0.484375,0.046875 0.625,0.234375 C 2.875,-4.171875 2.71875,-4.046875 2.71875,-3.84375 c 0,0.171875 0.125,0.328125 0.328125,0.328125 0.21875,0 0.34375,-0.140625 0.34375,-0.34375 0,-0.40625 -0.296875,-0.765625 -0.984375,-0.765625 -1,0 -2.03125,0.921875 -2.03125,2.421875 0,1.796875 0.84375,2.34375 1.625,2.34375 0.84375,0 1.578125,-0.65625 1.578125,-1.5625 0,-0.890625 -0.703125,-1.546875 -1.515625,-1.546875 -0.5625,0 -0.859375,0.375 -1.015625,0.6875 z M 2,-0.078125 c -0.359375,0 -0.625,-0.203125 -0.78125,-0.515625 C 1.125,-0.796875 1.0625,-1.15625 1.0625,-1.5625 c 0,-0.6875 0.40625,-1.203125 0.96875,-1.203125 0.3125,0 0.53125,0.125 0.703125,0.375 0.171875,0.265625 0.171875,0.5625 0.171875,0.96875 0,0.390625 0,0.6875 -0.1875,0.96875 -0.15625,0.234375 -0.390625,0.375 -0.71875,0.375 z m 0,0"
           id="path9349" />
      </symbol>
      <symbol
         overflow="visible"
         id="symbol6718">
        <path
           style="stroke:none"
           d="m 0.625,-5.21875 c -0.046875,0 -0.125,0 -0.125,0.078125 0,0.03125 0.015625,0.046875 0.0625,0.109375 0.59375,0.546875 1.265625,1.484375 1.265625,3.28125 0,1.453125 -0.453125,2.5625 -1.203125,3.234375 -0.125,0.125 -0.125,0.125 -0.125,0.171875 0,0.03125 0.015625,0.078125 0.078125,0.078125 0.09375,0 0.75,-0.453125 1.21875,-1.328125 0.296875,-0.578125 0.5,-1.328125 0.5,-2.140625 C 2.296875,-2.71875 2,-4.25 0.625,-5.21875 Z m 0,0"
           id="path5010" />
      </symbol>
    </g>
    <g
       id="g4929">
      <symbol
         overflow="visible"
         id="symbol2231">
        <path
           style="stroke:none"
           d=""
           id="path6706" />
      </symbol>
      <symbol
         overflow="visible"
         id="symbol1752">
        <path
           style="stroke:none"
           d="m 5.34375,-4 c -0.359375,0.109375 -0.53125,0.4375 -0.53125,0.6875 0,0.21875 0.15625,0.46875 0.484375,0.46875 0.359375,0 0.71875,-0.296875 0.71875,-0.78125 C 6.015625,-4.15625 5.5,-4.5 4.890625,-4.5 4.3125,-4.5 3.953125,-4.078125 3.8125,-3.890625 3.5625,-4.3125 3.015625,-4.5 2.4375,-4.5 c -1.25,0 -1.921875,1.21875 -1.921875,1.546875 0,0.140625 0.140625,0.140625 0.234375,0.140625 0.125,0 0.1875,0 0.234375,-0.125 0.28125,-0.90625 1,-1.203125 1.40625,-1.203125 0.375,0 0.5625,0.171875 0.5625,0.484375 0,0.203125 -0.140625,0.75 -0.234375,1.109375 L 2.375,-1.1875 c -0.140625,0.609375 -0.5,0.90625 -0.84375,0.90625 -0.046875,0 -0.28125,0 -0.46875,-0.140625 0.359375,-0.109375 0.53125,-0.453125 0.53125,-0.6875 0,-0.21875 -0.171875,-0.46875 -0.5,-0.46875 -0.34375,0 -0.71875,0.296875 -0.71875,0.78125 0,0.53125 0.53125,0.875 1.140625,0.875 0.5625,0 0.9375,-0.421875 1.0625,-0.609375 0.25,0.421875 0.8125,0.609375 1.375,0.609375 1.265625,0 1.9375,-1.21875 1.9375,-1.546875 0,-0.140625 -0.15625,-0.140625 -0.234375,-0.140625 -0.125,0 -0.1875,0 -0.234375,0.125 -0.28125,0.90625 -1,1.203125 -1.421875,1.203125 -0.375,0 -0.546875,-0.171875 -0.546875,-0.5 0,-0.203125 0.125,-0.734375 0.21875,-1.109375 0.0625,-0.25 0.296875,-1.1875 0.34375,-1.34375 0.15625,-0.609375 0.5,-0.90625 0.84375,-0.90625 0.0625,0 0.28125,0 0.484375,0.140625 z m 0,0"
           id="path3896" />
      </symbol>
      <symbol
         overflow="visible"
         id="symbol2466">
        <path
           style="stroke:none"
           d=""
           id="path3841" />
      </symbol>
      <symbol
         overflow="visible"
         id="symbol1654">
        <path
           style="stroke:none"
           d="M 2.46875,-5.21875 C 1.15625,-4.296875 0.796875,-2.8125 0.796875,-1.75 c 0,0.984375 0.296875,2.515625 1.671875,3.484375 0.0625,0 0.140625,0 0.140625,-0.078125 0,-0.046875 -0.015625,-0.0625 -0.0625,-0.109375 C 1.609375,0.703125 1.28125,-0.46875 1.28125,-1.734375 1.28125,-3.625 2,-4.546875 2.5625,-5.0625 2.59375,-5.09375 2.609375,-5.109375 2.609375,-5.140625 2.609375,-5.21875 2.53125,-5.21875 2.46875,-5.21875 Z m 0,0"
           id="path1852" />
      </symbol>
      <symbol
         overflow="visible"
         id="symbol9637">
        <path
           style="stroke:none"
           d="m 3.734375,-4.203125 c 0.0625,-0.09375 0.0625,-0.109375 0.0625,-0.28125 H 1.96875 C 1.6875,-4.484375 1.609375,-4.5 1.359375,-4.515625 1,-4.546875 0.984375,-4.59375 0.96875,-4.703125 H 0.734375 l -0.25,1.484375 H 0.71875 c 0.015625,-0.109375 0.09375,-0.5625 0.203125,-0.640625 0.046875,-0.03125 0.625,-0.03125 0.71875,-0.03125 H 3.15625 c -0.21875,0.28125 -0.578125,0.71875 -0.71875,0.921875 -0.90625,1.1875 -1,2.296875 -1,2.703125 0,0.078125 0,0.40625 0.328125,0.40625 0.34375,0 0.34375,-0.3125 0.34375,-0.40625 v -0.28125 c 0,-1.34375 0.28125,-1.96875 0.578125,-2.34375 z m 0,0"
           id="path3671" />
      </symbol>
      <symbol
         overflow="visible"
         id="symbol6520">
        <path
           style="stroke:none"
           d="m 0.625,-5.21875 c -0.046875,0 -0.125,0 -0.125,0.078125 0,0.03125 0.015625,0.046875 0.0625,0.109375 0.59375,0.546875 1.265625,1.484375 1.265625,3.28125 0,1.453125 -0.453125,2.5625 -1.203125,3.234375 -0.125,0.125 -0.125,0.125 -0.125,0.171875 0,0.03125 0.015625,0.078125 0.078125,0.078125 0.09375,0 0.75,-0.453125 1.21875,-1.328125 0.296875,-0.578125 0.5,-1.328125 0.5,-2.140625 C 2.296875,-2.71875 2,-4.25 0.625,-5.21875 Z m 0,0"
           id="path934" />
      </symbol>
    </g>
    <g
       id="g2909">
      <symbol
         overflow="visible"
         id="symbol8916">
        <path
           style="stroke:none"
           d=""
           id="path1315" />
      </symbol>
      <symbol
         overflow="visible"
         id="symbol9492">
        <path
           style="stroke:none"
           d="m 5.34375,-4 c -0.359375,0.109375 -0.53125,0.4375 -0.53125,0.6875 0,0.21875 0.15625,0.46875 0.484375,0.46875 0.359375,0 0.71875,-0.296875 0.71875,-0.78125 C 6.015625,-4.15625 5.5,-4.5 4.890625,-4.5 4.3125,-4.5 3.953125,-4.078125 3.8125,-3.890625 3.5625,-4.3125 3.015625,-4.5 2.4375,-4.5 c -1.25,0 -1.921875,1.21875 -1.921875,1.546875 0,0.140625 0.140625,0.140625 0.234375,0.140625 0.125,0 0.1875,0 0.234375,-0.125 0.28125,-0.90625 1,-1.203125 1.40625,-1.203125 0.375,0 0.5625,0.171875 0.5625,0.484375 0,0.203125 -0.140625,0.75 -0.234375,1.109375 L 2.375,-1.1875 c -0.140625,0.609375 -0.5,0.90625 -0.84375,0.90625 -0.046875,0 -0.28125,0 -0.46875,-0.140625 0.359375,-0.109375 0.53125,-0.453125 0.53125,-0.6875 0,-0.21875 -0.171875,-0.46875 -0.5,-0.46875 -0.34375,0 -0.71875,0.296875 -0.71875,0.78125 0,0.53125 0.53125,0.875 1.140625,0.875 0.5625,0 0.9375,-0.421875 1.0625,-0.609375 0.25,0.421875 0.8125,0.609375 1.375,0.609375 1.265625,0 1.9375,-1.21875 1.9375,-1.546875 0,-0.140625 -0.15625,-0.140625 -0.234375,-0.140625 -0.125,0 -0.1875,0 -0.234375,0.125 -0.28125,0.90625 -1,1.203125 -1.421875,1.203125 -0.375,0 -0.546875,-0.171875 -0.546875,-0.5 0,-0.203125 0.125,-0.734375 0.21875,-1.109375 0.0625,-0.25 0.296875,-1.1875 0.34375,-1.34375 0.15625,-0.609375 0.5,-0.90625 0.84375,-0.90625 0.0625,0 0.28125,0 0.484375,0.140625 z m 0,0"
           id="path8998" />
      </symbol>
      <symbol
         overflow="visible"
         id="symbol6580">
        <path
           style="stroke:none"
           d=""
           id="path8915" />
      </symbol>
      <symbol
         overflow="visible"
         id="symbol9388">
        <path
           style="stroke:none"
           d="M 2.46875,-5.21875 C 1.15625,-4.296875 0.796875,-2.8125 0.796875,-1.75 c 0,0.984375 0.296875,2.515625 1.671875,3.484375 0.0625,0 0.140625,0 0.140625,-0.078125 0,-0.046875 -0.015625,-0.0625 -0.0625,-0.109375 C 1.609375,0.703125 1.28125,-0.46875 1.28125,-1.734375 1.28125,-3.625 2,-4.546875 2.5625,-5.0625 2.59375,-5.09375 2.609375,-5.109375 2.609375,-5.140625 2.609375,-5.21875 2.53125,-5.21875 2.46875,-5.21875 Z m 0,0"
           id="path4200" />
      </symbol>
      <symbol
         overflow="visible"
         id="symbol4449">
        <path
           style="stroke:none"
           d="m 2.46875,-2.515625 c 0.546875,-0.265625 0.890625,-0.59375 0.890625,-1.078125 0,-0.671875 -0.703125,-1.03125 -1.375,-1.03125 -0.765625,0 -1.390625,0.5 -1.390625,1.15625 0,0.328125 0.15625,0.5625 0.28125,0.703125 0.125,0.15625 0.171875,0.1875 0.578125,0.421875 C 1.0625,-2.171875 0.375,-1.796875 0.375,-1.0625 c 0,0.765625 0.796875,1.203125 1.59375,1.203125 0.890625,0 1.609375,-0.5625 1.609375,-1.3125 0,-0.46875 -0.265625,-0.859375 -0.671875,-1.09375 -0.09375,-0.0625 -0.328125,-0.1875 -0.4375,-0.25 z m -1.125,-0.65625 c -0.1875,-0.109375 -0.375,-0.296875 -0.375,-0.5625 0,-0.4375 0.5,-0.6875 1,-0.6875 0.546875,0 1.03125,0.34375 1.03125,0.828125 0,0.625 -0.734375,0.9375 -0.734375,0.9375 -0.015625,0 -0.03125,0 -0.078125,-0.03125 z m 0.328125,0.96875 0.96875,0.546875 c 0.171875,0.109375 0.515625,0.3125 0.515625,0.71875 0,0.53125 -0.578125,0.859375 -1.171875,0.859375 -0.640625,0 -1.1875,-0.421875 -1.1875,-0.984375 0,-0.515625 0.375,-0.921875 0.875,-1.140625 z m 0,0"
           id="path2769" />
      </symbol>
      <symbol
         overflow="visible"
         id="symbol7557">
        <path
           style="stroke:none"
           d="m 0.625,-5.21875 c -0.046875,0 -0.125,0 -0.125,0.078125 0,0.03125 0.015625,0.046875 0.0625,0.109375 0.59375,0.546875 1.265625,1.484375 1.265625,3.28125 0,1.453125 -0.453125,2.5625 -1.203125,3.234375 -0.125,0.125 -0.125,0.125 -0.125,0.171875 0,0.03125 0.015625,0.078125 0.078125,0.078125 0.09375,0 0.75,-0.453125 1.21875,-1.328125 0.296875,-0.578125 0.5,-1.328125 0.5,-2.140625 C 2.296875,-2.71875 2,-4.25 0.625,-5.21875 Z m 0,0"
           id="path7527" />
      </symbol>
    </g>
    <marker
       style="overflow:visible"
       id="Arrow1Send-2"
       refX="0"
       refY="0"
       orient="auto"
       inkscape:stockid="Arrow1Send"
       inkscape:isstock="true">
      <path
         transform="matrix(-0.2,0,0,-0.2,-1.2,0)"
         style="fill:context-stroke;fill-rule:evenodd;stroke:context-stroke;stroke-width:1pt"
         d="M 0,0 5,-5 -12.5,0 5,5 Z"
         id="path36797-9" />
    </marker>
  </defs>
  <g
     inkscape:label="Layer 1"
     inkscape:groupmode="layer"
     id="layer1"
     transform="translate(84.484474,194.50632)">
    <rect
       style="fill:#d5f6ff;fill-opacity:1;stroke:none;stroke-width:1.17474;stroke-miterlimit:4;stroke-dasharray:none;stop-color:#000000"
       id="rect43571"
       width="311.92569"
       height="90.029678"
       x="-84.484474"
       y="-194.18877" />
    <g
       id="g3300"
       transform="matrix(1,0,0,1.0444075,-89.710362,34.293182)">
      <path
         style="fill:#2ca02c;stroke:#000000;stroke-width:2;stroke-miterlimit:4;stroke-dasharray:none;stop-color:#000000"
         d="m 14.348473,-131.64826 c 1.6665,-0.245 3.333,-0.542 4.9996,-0.909 1.6665,-0.367 3.333,-0.804 4.9995,-1.331 1.666503,-0.528 3.333103,-1.146 4.999603,-1.874 1.6665,-0.728 3.333,-1.566 4.9996,-2.531 1.6665,-0.964 3.333,-2.055 4.9995,-3.278 1.6665,-1.224 3.3331,-2.581 4.9996,-4.065 1.6665,-1.485 3.333,-3.097 4.9995,-4.813 1.6666,-1.717 3.3331,-3.539 4.9996,-5.424 1.6665,-1.885 3.333,-3.834 4.9996,-5.788 1.6665,-1.955 3.333,-3.914 4.9995,-5.807 1.6665,-1.894 3.3331,-3.721 4.999604,-5.407 1.6665,-1.686 3.333,-3.23 4.9995,-4.563 1.6666,-1.333 3.3331,-2.454 4.9996,-3.31 1.667,-0.856 3.333,-1.445 5,-1.74 1.666,-0.296 3.333,-0.295 4.999,0 1.667,0.294 3.333,0.885 5,1.74 1.666,0.856 3.333,1.977 4.999,3.31 1.667,1.333 3.333,2.877 5,4.563 1.666,1.686 3.333,3.514 4.999,5.407 1.667,1.893 3.333,3.852 5,5.807 1.666,1.954 3.333,3.903 5,5.788 1.666,1.885 3.333,3.707 4.999,5.424 1.667,1.716 3.333,3.328 5,4.813 1.666,1.484 3.333,2.841 4.999,4.065 1.667,1.224 3.333,2.314 5,3.278 1.666,0.965 3.333,1.803 4.999,2.531 1.667,0.728 3.333,1.346 5,1.874 1.666,0.527 3.333,0.964 4.999,1.331 1.667,0.367 3.333,0.664 5,0.909"
         title="t exp(-(t/0.75)**2/2)/sqrt(2*pi*0.75**2)"
         id="path1206-6-1" />
      <path
         style="fill:#ffd42a;stroke:#000000;stroke-width:2;stroke-miterlimit:4;stroke-dasharray:none;stop-color:#000000"
         d="m -0.63292586,267.54727 c 1.66649946,-0.245 3.33299946,-0.542 4.99959916,-0.909 1.6664991,-0.367 3.3329979,-0.804 4.999497,-1.331 1.6664987,-0.528 3.3330987,-1.146 4.9995977,-1.874 1.666499,-0.728 3.332997,-1.566 4.999596,-2.531 1.666499,-0.964 3.332999,-2.055 4.999498,-3.278 1.6665,-1.224 3.333101,-2.581 4.999602,-4.065 1.666501,-1.485 3.333002,-3.097 4.999503,-4.813 1.666601,-1.717 3.333102,-3.539 4.999603,-5.424 1.666501,-1.885 3.333002,-3.83401 4.999603,-5.78801 1.666501,-1.955 3.333001,-3.914 4.999501,-5.807 1.6665,-1.894 3.3331,-3.721 4.9996,-5.407 1.6665,-1.686 3.333,-3.23 4.9995,-4.563 1.6666,-1.333 3.3331,-2.454 4.9996,-3.31 1.667,-0.856 3.333,-1.445 5,-1.74 1.666,-0.296 3.333,-0.295 4.999,0 1.667,0.294 3.333,0.885 5,1.74 1.666,0.856 3.333,1.977 4.999,3.31 1.667,1.333 3.333,2.877 5,4.563 1.666,1.686 3.333,3.514 4.999,5.407 1.667,1.893 3.333,3.852 5,5.807 1.665996,1.954 3.332996,3.90301 4.999996,5.78801 1.666,1.885 3.333,3.707 4.999,5.424 1.66701,1.716 3.33301,3.328 5.00001,4.813 1.66601,1.484 3.33302,2.841 4.99903,4.065 1.66701,1.224 3.33302,2.314 5.00002,3.278 1.66601,0.965 3.33303,1.803 4.99903,2.531 1.66701,0.728 3.33302,1.346 5.00003,1.874 1.66601,0.527 3.33301,0.964 4.99901,1.331 1.667,0.367 3.333,0.664 5,0.909"
         title="t exp(-(t/0.75)**2/2)/sqrt(2*pi*0.75**2)"
         id="path1206-3-6-8"
         mask="url(#mask3088-6-2)"
         transform="translate(14.981399,-399.19553)" />
    </g>
    <path
       style="fill:#2ca02c;stroke:#000000;stroke-width:2.04393;stroke-miterlimit:4;stroke-dasharray:none;stop-color:#000000"
       d="m 69.625537,-103.20123 c 1.6665,-0.25588 3.333,-0.56607 4.9996,-0.94936 1.6665,-0.3833 3.333,-0.83971 4.9995,-1.39011 1.66651,-0.55145 3.33311,-1.19689 4.99961,-1.95722 1.6665,-0.76033 3.333,-1.63554 4.9996,-2.64339 1.6665,-1.00681 3.333,-2.14626 4.9995,-3.42357 1.6665,-1.27836 3.3331,-2.69562 4.999596,-4.24552 1.666497,-1.55094 3.332997,-3.23453 4.999497,-5.02673 1.6666,-1.79325 3.3331,-3.69616 4.9996,-5.66487 1.6665,-1.96871 3.333,-4.00426 4.9996,-6.04503 1.6665,-2.04182 3.333,-4.08781 4.9995,-6.06487 1.6665,-1.97811 3.3331,-3.88624 4.9996,-5.64712 1.6665,-1.76087 3.333,-3.37343 4.9995,-4.76563 1.6666,-1.39219 3.3331,-2.56297 4.9996,-3.45699 1.667,-0.89401 3.333,-1.50916 5,-1.81727 1.666,-0.30914 3.333,-0.3081 4.999,0 1.667,0.30706 3.333,0.92431 5,1.81727 1.666,0.89402 3.333,2.0648 4.999,3.45699 1.667,1.3922 3.333,3.00476 5,4.76563 1.666,1.76088 3.333,3.67005 4.999,5.64712 1.667,1.97706 3.333,4.02305 5,6.06487 1.666,2.04077 3.333,4.07632 5,6.04503 1.666,1.96871 3.333,3.87162 4.999,5.66487 1.667,1.7922 3.333,3.47579 5,5.02673 1.666,1.5499 3.333,2.96716 4.999,4.24552 1.667,1.27835 3.333,2.41676 5,3.42357 1.666,1.00785 3.333,1.88306 4.999,2.64339 1.667,0.76033 3.333,1.40577 5,1.95722 1.666,0.5504 3.333,1.00681 4.999,1.39011 1.667,0.38329 3.333,0.69348 5,0.94936"
       title="t exp(-(t/0.75)**2/2)/sqrt(2*pi*0.75**2)"
       id="path1206-6-5" />
    <path
       style="fill:#447821;fill-opacity:1;stroke:#000000;stroke-width:2;stroke-miterlimit:4;stroke-dasharray:none;stop-color:#000000"
       d="m -0.63292586,267.54727 c 1.66649946,-0.245 3.33299946,-0.542 4.99959916,-0.909 1.6664991,-0.367 3.3329979,-0.804 4.999497,-1.331 1.6664987,-0.528 3.3330987,-1.146 4.9995977,-1.874 1.666499,-0.728 3.332997,-1.566 4.999596,-2.531 1.666499,-0.964 3.332999,-2.055 4.999498,-3.278 1.6665,-1.224 3.333101,-2.581 4.999602,-4.065 1.666501,-1.485 3.333002,-3.097 4.999503,-4.813 1.666601,-1.717 3.333102,-3.539 4.999603,-5.424 1.666501,-1.885 3.333002,-3.83401 4.999603,-5.78801 1.666501,-1.955 3.333001,-3.914 4.999501,-5.807 1.6665,-1.894 3.3331,-3.721 4.9996,-5.407 1.6665,-1.686 3.333,-3.23 4.9995,-4.563 1.6666,-1.333 3.3331,-2.454 4.9996,-3.31 1.667,-0.856 3.333,-1.445 5,-1.74 1.666,-0.296 3.333,-0.295 4.999,0 1.667,0.294 3.333,0.885 5,1.74 1.666,0.856 3.333,1.977 4.999,3.31 1.667,1.333 3.333,2.877 5,4.563 1.666,1.686 3.333,3.514 4.999,5.407 1.667,1.893 3.333,3.852 5,5.807 1.665996,1.954 3.332996,3.90301 4.999996,5.78801 1.666,1.885 3.333,3.707 4.999,5.424 1.66701,1.716 3.33301,3.328 5.00001,4.813 1.66601,1.484 3.33302,2.841 4.99903,4.065 1.66701,1.224 3.33302,2.314 5.00002,3.278 1.66601,0.965 3.33303,1.803 4.99903,2.531 1.66701,0.728 3.33302,1.346 5.00003,1.874 1.66601,0.527 3.33301,0.964 4.99901,1.331 1.667,0.367 3.333,0.664 5,0.909"
       title="t exp(-(t/0.75)**2/2)/sqrt(2*pi*0.75**2)"
       id="path1206-3-6-9"
       mask="url(#mask3088-6-23)"
       transform="matrix(1,0,0,1.0444075,70.258467,-382.62961)" />
    <g
       id="g1214"
       transform="matrix(0.65955195,-0.44446304,0.44446304,0.65955195,3.697296,19.54841)"
       inkscape:transform-center-x="-2.6548352"
       inkscape:transform-center-y="-0.69743278">
      <g
         id="g4197"
         transform="matrix(0.01427774,0.02852485,-0.02852485,0.01427774,233.02752,-107.39181)">
        <path
           id="path4184"
           d="M 0,0 V 0.77969 C 0.19,0.57969 0.5797,0.19 0.7797,0 Z m 209.3,4.9141 c -4.19,0.0147 -8.41,0.2206 -12.65,0.6359 -39.86,3.25 -70.27,33.031 -88.37,66.741 -30.66,59.299 -51.401,127.49 -40.221,194.56 7.8,43.26 46.69,76.679 89.1,84.009 17.5,5.72 39.161,5.4706 50.981,21.991 8.75,17.38 3.69,37.07 2.2,55.48 -1.53,78.92 2.2588,158.14 20.219,235.15 4.5,32.3 -16.76,60.04 -28.55,88.52 -46.76,78.96 -109.68,153.87 -194.86,192.07 -7.93,3.09 -3.2906,13.749 3.0094,16.089 31.52,8.98 63.961,-1.4194 93.441,-12.559 37.65,-14.45 67.97,-42.031 98.02,-67.991 53.53,-45.12 90.799,-106.85 146.86,-149.15 31.2,-16.04 60.19,-36.279 84.98,-61.239 20.52,5.4 39.011,15.98 57.711,25.7 5.54,3.25 13.239,3.1797 17.139,-2.6203 16.68,-17.63 33.2,-38.54 35.05,-63.68 1.62,-4.17 -1.5191,-9.0197 -5.8891,-9.2797 -20.84,-3.14 -43.651,-9.23 -56.861,-27 -2.5,-2.56 -1.75,-8.59 2.5,-8.35 18.84,2.79 36.061,12.359 53.631,18.659 19.41,-14.51 30.659,-39.169 35.139,-62.659 0.98,-15.33 -18.599,-9.0506 -27.559,-13.041 -23.34,-7.37 -24.621,-35.501 -32.641,-54.641 -7.16,-37.61 -41.359,-68.399 -78.859,-72.289 16.71,-18.4 35.76,-37.051 42.47,-61.891 6.74,1.12 14.489,5.0103 20.519,-0.47969 4.64,-8.23 -8.6894,-11.991 -12.709,-16.741 5.26,-7.95 11.789,-15.1 16.809,-23.18 0.12,-10.24 -14.739,-9.3997 -19.459,-2.8797 -7.59,-1.28 4.8703,-13.201 -2.2297,-17.291 -8.23,-6.82 -13.371,7.6606 -18.341,11.441 -4.1,-1.96 -7.8597,-9.66 -13.53,-5.8 -9.98,10.14 -2.5506,25.281 0.6094,36.691 -11.14,19.38 -30.989,31.949 -50.569,41.639 -2.26,1.15 -5.2303,-0.36938 -4.2703,-3.1094 21.02,-33.58 35.71,-72.821 33.38,-112.91 1.98,-8.08 17.069,-1.4388 19.459,-9.8188 1.23,-8.75 -9.2797,-10.451 -14.48,-14.391 -2.21,-10.75 4.9503,-21.7 3.2703,-31.93 -7.35,-9.33 -14.95,5.2494 -18.68,10.809 -4.17,-5.63 -3.7206,-17.82 -12.641,-18.17 -7.28,5.17 -7.3003,14.921 -6.7203,22.931 -6.73,-0.32 -9.8194,-12.43 -17.359,-7.75 -7.41,16.06 9.9194,28.329 17.559,40.019 -6.75,28.07 -23.049,53.29 -41.609,75.07 -4.32,2.96 -9.22,13.43 -15.15,7.7297 -20.93,-17.82 -39.551,-46.62 -30.241,-75.13 6.68,-24.33 16.481,-47.78 27.361,-70.63 13.19,-29.06 13.14,-65.51 -7.1203,-91.2 15.53,-11.51 -11.16,-25.98 -5.84,-41.03 -34.82,-19.511 -73.43,-37.249 -114.01,-37.106 z"
           fill="#ea5b27" />
        <path
           id="path6"
           d="m 261.63,6.1426 c -5.25,0.0185 -10.52,0.2758 -15.82,0.7949 -49.82,4.0625 -87.84,41.288 -110.46,83.426 -38.325,74.126 -64.251,159.36 -50.276,243.2 9.75,54.075 58.363,95.849 111.38,105.01 21.875,7.15 48.952,6.8383 63.727,27.488 10.938,21.725 4.6125,46.337 2.75,69.35 -1.9125,98.65 2.8234,197.68 25.273,293.94 5.625,40.375 -20.95,75.05 -35.688,110.65 -58.45,98.7 -137.1,192.34 -243.57,240.09 -9.9125,3.8625 -4.1133,17.186 3.7617,20.111 39.4,11.225 79.951,-1.7742 116.8,-15.699 47.062,-18.062 84.963,-52.538 122.53,-84.988 66.912,-56.4 113.5,-133.56 183.57,-186.44 39,-20.05 75.237,-45.349 106.22,-76.549 25.65,6.75 48.764,19.975 72.139,32.125 6.925,4.0625 16.549,3.9746 21.424,-3.2754 20.85,-22.038 41.5,-48.175 43.812,-79.6 2.025,-5.2125 -1.8988,-11.275 -7.3613,-11.6 -26.05,-3.925 -54.564,-11.538 -71.076,-33.75 -3.125,-3.2 -2.1875,-10.738 3.125,-10.438 23.55,3.4875 45.077,15.449 67.039,23.324 24.262,-18.138 38.324,-48.962 43.924,-78.324 1.225,-19.162 -23.249,-11.313 -34.449,-16.301 -29.175,-9.2125 -30.776,-44.376 -40.801,-68.301 -8.95,-47.012 -51.699,-85.499 -98.574,-90.361 20.888,-23 44.7,-46.313 53.088,-77.363 8.425,1.4 18.111,6.2629 25.648,-0.59961 5.8,-10.288 -10.862,-14.988 -15.887,-20.926 6.575,-9.9375 14.737,-18.875 21.012,-28.975 0.15,-12.8 -18.424,-11.75 -24.324,-3.5996 -9.4875,-1.6 6.0879,-16.501 -2.7871,-21.613 -10.288,-8.525 -16.713,9.5758 -22.926,14.301 -5.125,-2.45 -9.8246,-12.075 -16.912,-7.25 -12.475,12.675 -3.1883,31.601 0.76172,45.863 -13.925,24.225 -38.736,39.936 -63.211,52.049 -2.825,1.4375 -6.5379,-0.46172 -5.3379,-3.8867 26.275,-41.975 44.637,-91.026 41.725,-141.14 2.475,-10.1 21.337,-1.7984 24.324,-12.273 1.5375,-10.938 -11.6,-13.063 -18.1,-17.988 -2.7625,-13.438 6.1879,-27.125 4.0879,-39.912 -9.1875,-11.662 -18.687,6.5617 -23.35,13.512 -5.2125,-7.0375 -4.6508,-22.275 -15.801,-22.713 -9.1,6.4625 -9.1254,18.652 -8.4004,28.664 -8.4125,-0.4 -12.274,-15.538 -21.699,-9.6875 -9.2625,20.075 12.399,35.411 21.949,50.023 -8.4375,35.088 -28.812,66.613 -52.012,93.838 -5.4,3.7 -11.525,16.787 -18.938,9.6621 -26.162,-22.275 -49.438,-58.275 -37.801,-93.912 8.35,-30.412 20.601,-59.725 34.201,-88.287 16.488,-36.325 16.425,-81.888 -8.9004,-114 19.44,-14.375 -13.92,-32.462 -7.27,-51.275 -43.53,-24.389 -91.79,-46.561 -142.51,-46.382 z m 2.1543,8.6211 c 39.542,0.15689 78.334,17.809 114.24,33.424 5.525,3.7875 18.1,5.4121 15.15,14.725 -26.9,56.15 -44.226,116.23 -60.326,176.2 -13.575,44.412 -42.699,88.975 -89.949,101.5 -13.188,7.0875 -5.6375,-18.464 -16.812,-13.227 -7.7125,15.5 8.5492,37.25 26.012,33.688 3.2625,-6.9375 -13.587,-6.6875 -8.5742,-12.688 17.638,-9.025 34.438,14.238 52.375,8.7754 5.3375,-10.562 1.55,-23.437 5.5,-34.449 9.0125,-3.85 21.824,6.0871 29.574,-1.8379 3.1875,-11.325 -5.7375,-22.362 -4.25,-33.949 8.55,-4.375 20.875,-3.0629 26.812,-11.4 0.5625,-10.975 -8.8367,-19.625 -9.5117,-30.025 8.3875,-4.9875 20.163,-5.4254 25.9,-14.213 2.8875,-10.662 -5.4887,-19.013 -7.3887,-28.65 5.4,-7.8 20.262,-8.0742 22.225,-19.012 -0.6375,-9.0625 -8.2359,-16.9 -9.0859,-25.6 7.525,-6.4375 17.974,-9.2871 26.424,-14.725 3.45,-8.425 -4.8371,-16.539 -7.4121,-24.389 -4.075,-5.7625 6.4617,-12.299 9.8242,-5.9492 12.762,18.1 17.812,40.924 16.5,62.887 -6.9375,41.238 -28.224,77.714 -42.137,116.76 -8.525,27.288 -5.4375,57.738 9.75,82.188 26.225,31.038 61.513,54.938 91.176,81.375 -17.75,8.7125 -39.7,9.5488 -59.588,12.799 -7.2875,3.1375 -36.062,-7.0379 -33.625,3.2871 66.812,16.362 148.4,-12.275 182.09,-74.812 -4.9,-9.8125 -8.4641,-20.624 -7.2891,-31.861 6.6375,-2.25 6.9383,10.075 13.801,10.537 9.3625,0.025 7.5117,-18.037 16.012,-16.912 0.525,6.375 -1.3,13.438 2,19.312 8.6875,4.2125 13.65,-10.375 21.713,-6.125 -4.6,11.85 -28.224,29 -9.5488,39.875 10.112,9.675 -11.889,2.1246 -16.102,2.5371 -29.325,70.912 -97.138,127.9 -174.81,135.62 -3.1875,-0.5625 -7.0875,4.8875 -2.375,5.125 25.2,1.4375 50.226,-6.0254 72.988,-16.338 17.938,-7.7125 32.551,-21.413 48.551,-31.588 24.175,22.012 42.087,52.45 52.787,83.213 12.575,20.088 7.0996,45.401 13.537,67.301 2.2125,21.062 -2.7883,41.674 -3.9883,62.574 0.0875,2.8875 -4.1617,2.0629 -3.7617,-0.47461 -6.4625,-16.688 -7.1121,-35.001 -14.537,-51.426 -11.238,-10.762 -10.487,-28.823 -21.975,-39.523 -8.1,-11.112 -21.938,-15.738 -32,-24.301 -29.638,-13.812 -67.725,-13.9 -94.525,5.5 -6.0125,12.162 12.586,7.3254 18.424,3.3379 34.925,-18.662 76.7,-2.7621 100.31,25.775 16.175,23.425 24.114,51.499 29.576,79.111 5.85,17.138 11.862,37.062 29.625,45.438 18.65,12.975 42.863,12.825 62.963,21.025 -9.175,27.088 -21.413,54.801 -44.801,72.613 -5.6,5.025 -12.088,-2.6008 -17.25,-4.5508 -43.15,-23.325 -91.588,-41.262 -141.19,-39.312 -5.125,0.35 -15.463,4.9625 -8.1758,10.25 21.612,2.225 43.939,1.275 64.701,8.8125 3.825,1.9625 -0.0129,6.4246 -2.0879,8.2871 -19.675,13.825 -36.601,31.614 -57.176,44.014 -59.662,27.262 -98.874,82.162 -142.14,129.13001 -24.175,33.012 -55.5,59.662 -85.775,86.762 -29.888,23.362 -58.837,48.838 -93.35,65.426 -37.7,15.95 -78.463,32.437 -120.18,25.887 -2.975,0.025 -9.3617,-3.0383 -4.7617,-5.8633 99.238,-49.2 180.4,-130.42 234.51,-226.76001 16.188,-28.612 34,-57.55 40.838,-90.1 15.425,-19.012 -0.66211,-48.601 -1.9121,-72.326 -14.662,-68.775 -16.45,-139.21 -19.537,-209.06 -3.2875,-39.725 8.3367,-79.312 1.3242,-118.81 -7.3,-22.588 -31.8,-29.937 -52.812,-33.537 -49.63,-9.39 -102.16,-35.42 -121.44,-84.97 -12.86,-42.58 -10.185,-88.04 -1.498,-131.11 16.188,-57.54 32.648,-118.2 74.158,-163.39 13.688,-19.588 36.638,-30.65 58.963,-37.312 11.143,-3.1281 22.274,-4.456 33.346,-4.4121 z m 134.1,56.736 c 4.5125,3.8875 14.038,19.601 6.375,26.551 -6.5,2.0875 -12.75,7.1859 -19.225,7.5234 0.36,-12.058 9.82,-22.47 12.85,-34.07 z m -17.633,47.492 c 8.7582,-0.48474 7.0789,14.398 8.1445,20.295 -6.3,1.875 -11.374,7.4754 -18.449,6.4004 -0.1625,-9.625 4.1633,-18.762 9.4258,-26.6 0.30469,-0.0484 0.59638,-0.0801 0.87891,-0.0957 z m -16.43,44.795 c 5.85,3.925 6.8254,13.687 10.775,19.475 -5.625,4.1625 -13,7.2004 -19.463,8.9004 1.0125,-9.7625 5.8625,-19 8.6875,-28.375 z m -13.225,41.775 c 7.85,1.5125 6.3504,15.488 10.65,21.812 -6.4,2.725 -12.013,9.6621 -19.926,10.1 3.7625,-10.475 2.9004,-22.425 9.2754,-31.912 z m 153.02,30.41 c 8.1375,4.3 6.2367,16.626 13.137,22.613 10.85,1.75 9.5125,-16.538 19,-15.713 -0.45,12.075 -7.575,23.675 -3.375,35.875 -0.5875,7.875 11.638,6.3367 12.426,13.699 -5.9,4.325 -17.9,-2.55 -19.438,7.3125 1.175,50.375 -13.95,100.98 -42.35,142.38 -17.825,-5.7375 -34.312,-19.912 -46.662,-34.475 34.05,-28.888 57.937,-70.112 67.387,-113.44 -10.462,-10.35 -23.475,-22.163 -25.775,-37.775 7.25,-5.3625 12.712,14.05 21.287,10.375 3.775,-9.775 0.41328,-21.05 4.3633,-30.85 z m -168.19,18.09 c 5.075,1.4375 9.0484,11.963 9.3359,17.926 -5.525,3.975 -12.95,5.2875 -19.6,6.75 1.875,-8.7125 6.0012,-16.938 10.264,-24.676 z m -19.826,40.051 c 6.925,0.6375 4.8496,14.912 8.0371,20.912 -4.2125,2.4625 -13.261,-1.1633 -19.398,-0.67578 0.125,-7.775 7.8113,-13.486 11.361,-20.236 z m -29.059,33.828 c 7.7917,0.0463 7.6777,31.7 -6.8535,20.184 -1.3125,-5.3375 -15.574,-4.9633 -8.8867,-11.113 7.9625,-1.725 8.9109,-5.2246 14.961,-8.9746 0.26758,-0.0668 0.52795,-0.0972 0.7793,-0.0957 z m 267.7,184.58 c 22.638,2.925 38.248,21.862 53.773,36.975 21.138,24.575 26.75,57.513 38.15,86.838 7.45,21.475 30.437,31.762 51.412,34.662 6.05,0.5625 9.2258,6.9625 5.7383,12.312 -6.5375,21.125 -15.924,45.776 -34.574,57.863 -19.862,-10.95 -43.25,-12.838 -63.625,-22 7.075,-48.5 5.9871,-100.11 -15.275,-145.28 -8.425,-22.35 -23.112,-42.138 -35.6,-61.375 z"
           fill-opacity="0.95294"
           transform="scale(0.8)"
           fill="#642a3e" />
        <path
           id="path10"
           d="m 397.88,71.5 c -3.025,11.6 -12.487,22.012 -12.85,34.074 6.475,-0.3375 12.725,-5.4359 19.225,-7.5234 7.6625,-6.95 -1.8625,-22.663 -6.375,-26.551 z m -17.633,47.492 c -0.28253,0.0156 -0.57422,0.0473 -0.87891,0.0957 -5.2625,7.8375 -9.5883,16.975 -9.4258,26.6 7.075,1.075 12.149,-4.5254 18.449,-6.4004 -1.0656,-5.8973 0.61367,-20.78 -8.1445,-20.295 z m -16.43,44.795 c -2.825,9.375 -7.675,18.612 -8.6875,28.375 6.4625,-1.7 13.838,-4.7379 19.463,-8.9004 -3.95,-5.7875 -4.9254,-15.55 -10.775,-19.475 z m -13.225,41.775 c -6.375,9.4875 -5.5129,21.437 -9.2754,31.912 7.9125,-0.4375 13.526,-7.3746 19.926,-10.1 -4.3,-6.325 -2.8004,-20.3 -10.65,-21.812 z m -15.162,48.5 c -4.2625,7.7375 -8.3887,15.963 -10.264,24.676 6.65,-1.4625 14.075,-2.775 19.6,-6.75 -0.2875,-5.9625 -4.2609,-16.488 -9.3359,-17.926 z m -19.826,40.051 c -3.55,6.75 -11.236,12.461 -11.361,20.236 6.1375,-0.4875 15.186,3.1383 19.398,0.67578 -3.1875,-6 -1.1121,-20.275 -8.0371,-20.912 z m -29.059,33.828 c -0.25135,-0.002 -0.51172,0.0289 -0.7793,0.0957 -6.05,3.75 -6.9984,7.2496 -14.961,8.9746 -6.6875,6.15 7.5742,5.7758 8.8867,11.113 14.531,11.516 14.645,-20.137 6.8535,-20.184 z"
           fill="#fdfcfc"
           transform="scale(0.8)" />
        <path
           id="path16"
           fill="#f29a84"
           d="m 136.6,144.44 c 17.04,-3.97 34.28,12.24 31.45,29.42 -2.13,18.29 -26.15,30.4 -41.32,18.39 -19.94,-11.18 -12.3,-45.09 9.87,-47.81 m 4.59,13.88 c -10.85,2.45 -16.81,19.48 -2.6,22.72 14.77,3.83 17.68,-22.71 2.6,-22.72 z" />
        <path
           id="path18"
           fill="#090707"
           d="m 141.19,158.32 c 15.08,0.01 12.17,26.55 -2.6,22.72 -14.21,-3.24 -8.25,-20.27 2.6,-22.72 z" />
        <path
           id="path30-3"
           d="m 388.62,374.8 c -13.288,9.625 -8.3125,32.325 -2.5,45.35 8.7,17.862 18.35,36.162 34.088,48.824 19.888,-3.25 41.838,-4.0863 59.588,-12.799 C 450.134,429.737 414.845,405.837 388.62,374.8 Z m 144.99,132.84 c -16,10.175 -30.613,23.875 -48.551,31.588 13.338,21.112 29.501,41.788 38.613,65.775 10.062,8.5625 23.9,13.188 32,24.301 11.488,10.7 10.737,28.761 21.975,39.523 7.425,16.425 8.0746,34.738 14.537,51.426 -0.4,2.5375 3.8492,3.3621 3.7617,0.47461 1.2,-20.9 6.2008,-41.512 3.9883,-62.574 -6.4375,-21.9 -0.96211,-47.213 -13.537,-67.301 -10.7,-30.762 -28.612,-61.2 -52.787,-83.213 z m -226.32,10.928 c -1.732,0.0602 -3.4852,0.30391 -5.2441,0.74805 -18.412,3.3 -28.85,28.001 -16.75,42.926 11.875,19.912 46.637,12.086 49.012,-10.826 4.3387,-16.936 -10.275,-33.43 -27.018,-32.848 z m 53.936,49.416 c -1.0105,-0.004 -2.058,0.0719 -3.1426,0.23242 -25.262,1.6125 -16.8,43.837 6.8496,36.912 21.791,-4.5631 16.839,-37.072 -3.707,-37.145 z m -55.102,28.268 c -1.885,0.001 -3.7871,0.20273 -5.6797,0.62695 -15.65,4.875 -25.525,23.7 -17.312,38.725 7.65,21.975 43.925,20.126 50.588,-2.0117 7.3293,-18.578 -9.3739,-37.351 -27.596,-37.34 z m 58.281,40.543 c -1.4078,-0.0738 -2.9453,0.21132 -4.5859,0.94726 -11.275,4.4125 -5.9871,25.423 6.9629,20.586 11.036,-2.9859 7.4779,-21.016 -2.377,-21.533 z m -30.254,38.512 c -3.6891,0.0334 -7.3438,0.49805 -10.844,1.4219 -23.65,6.825 -39.438,35.776 -31.301,59.951 11.525,35.312 68.638,39.025 85.525,4.2871 1.2,-10.95 4.4,-22.226 0.8125,-33.051 -3.3223,-20.408 -24.272,-32.79 -44.193,-32.609 z m -13.803,101.77 c -1.3524,0.0324 -2.8047,0.29004 -4.3535,0.8125 -13.225,4.3125 -12.713,28.164 2.8242,27.076 19.452,2.708 17.487,-28.271 1.5293,-27.889 z"
           fill="#fcca8d"
           transform="scale(0.8)" />
      </g>
    </g>
    <g
       id="g3292"
       transform="matrix(1,0,0,1.0444075,-229.54811,4.5609998)">
      <path
         style="fill:#2ca02c;stroke:#000000;stroke-width:2;stroke-miterlimit:4;stroke-dasharray:none;stop-color:#000000"
         d="m 231.45373,-102.12194 c 1.6665,-0.245 3.333,-0.542 4.9996,-0.909 1.6665,-0.367 3.333,-0.804 4.9995,-1.331 1.66651,-0.528 3.33311,-1.146 4.99961,-1.874 1.6665,-0.728 3.333,-1.566 4.9996,-2.531 1.6665,-0.964 3.333,-2.055 4.9995,-3.278 1.6665,-1.224 3.3331,-2.581 4.9996,-4.065 1.6665,-1.485 3.333,-3.097 4.9995,-4.813 1.6666,-1.717 3.3331,-3.539 4.9996,-5.424 1.6665,-1.885 3.333,-3.834 4.9996,-5.788 1.6665,-1.955 3.333,-3.914 4.9995,-5.807 1.6665,-1.894 3.3331,-3.721 4.9996,-5.407 1.6665,-1.686 3.333,-3.23 4.9995,-4.563 1.6666,-1.333 3.3331,-2.454 4.9996,-3.31 1.667,-0.856 3.333,-1.445 5,-1.74 1.666,-0.296 3.333,-0.295 4.999,0 1.667,0.294 3.333,0.885 5,1.74 1.666,0.856 3.333,1.977 4.999,3.31 1.667,1.333 3.333,2.877 5,4.563 1.666,1.686 3.333,3.514 4.999,5.407 1.667,1.893 3.333,3.852 5,5.807 1.666,1.954 3.333,3.903 5,5.788 1.666,1.885 3.333,3.707 4.999,5.424 1.667,1.716 3.333,3.328 5,4.813 1.666,1.484 3.333,2.841 4.999,4.065 1.667,1.224 3.333,2.314 5,3.278 1.666,0.965 3.333,1.803 4.999,2.531 1.667,0.728 3.333,1.346 5,1.874 1.666,0.527 3.333,0.964 4.999,1.331 1.667,0.367 3.333,0.664 5,0.909"
         title="t exp(-(t/0.75)**2/2)/sqrt(2*pi*0.75**2)"
         id="path1206-6-2" />
      <path
         style="fill:#ffd42a;stroke:#000000;stroke-width:2;stroke-miterlimit:4;stroke-dasharray:none;stop-color:#000000"
         d="m -0.63292586,267.54727 c 1.66649946,-0.245 3.33299946,-0.542 4.99959916,-0.909 1.6664991,-0.367 3.3329979,-0.804 4.999497,-1.331 1.6664987,-0.528 3.3330987,-1.146 4.9995977,-1.874 1.666499,-0.728 3.332997,-1.566 4.999596,-2.531 1.666499,-0.964 3.332999,-2.055 4.999498,-3.278 1.6665,-1.224 3.333101,-2.581 4.999602,-4.065 1.666501,-1.485 3.333002,-3.097 4.999503,-4.813 1.666601,-1.717 3.333102,-3.539 4.999603,-5.424 1.666501,-1.885 3.333002,-3.83401 4.999603,-5.78801 1.666501,-1.955 3.333001,-3.914 4.999501,-5.807 1.6665,-1.894 3.3331,-3.721 4.9996,-5.407 1.6665,-1.686 3.333,-3.23 4.9995,-4.563 1.6666,-1.333 3.3331,-2.454 4.9996,-3.31 1.667,-0.856 3.333,-1.445 5,-1.74 1.666,-0.296 3.333,-0.295 4.999,0 1.667,0.294 3.333,0.885 5,1.74 1.666,0.856 3.333,1.977 4.999,3.31 1.667,1.333 3.333,2.877 5,4.563 1.666,1.686 3.333,3.514 4.999,5.407 1.667,1.893 3.333,3.852 5,5.807 1.665996,1.954 3.332996,3.90301 4.999996,5.78801 1.666,1.885 3.333,3.707 4.999,5.424 1.66701,1.716 3.33301,3.328 5.00001,4.813 1.66601,1.484 3.33302,2.841 4.99903,4.065 1.66701,1.224 3.33302,2.314 5.00002,3.278 1.66601,0.965 3.33303,1.803 4.99903,2.531 1.66701,0.728 3.33302,1.346 5.00003,1.874 1.66601,0.527 3.33301,0.964 4.99901,1.331 1.667,0.367 3.333,0.664 5,0.909"
         title="t exp(-(t/0.75)**2/2)/sqrt(2*pi*0.75**2)"
         id="path1206-3-6-0"
         mask="url(#mask3088-6-7)"
         transform="translate(232.08666,-369.66921)" />
    </g>
    <circle
       style="fill:#ffcc00;fill-opacity:1;stroke:#000000;stroke-width:1.5;stroke-miterlimit:4;stroke-dasharray:none;stop-color:#000000"
       id="path32946"
       cx="-56.308128"
       cy="-196.29692"
       r="18.372686" />
    <ellipse
       style="fill:#000000;fill-opacity:1;stroke:none;stroke-width:2.04393;stroke-miterlimit:4;stroke-dasharray:none;stop-color:#000000"
       id="path33122"
       cx="-28.840229"
       cy="-114.85501"
       rx="5"
       ry="5.2220378" />
    <ellipse
       style="fill:#000000;fill-opacity:1;stroke:none;stroke-width:2.04393;stroke-miterlimit:4;stroke-dasharray:none;stop-color:#000000"
       id="path33122-2"
       cx="8.3263254"
       cy="-127.77648"
       rx="5"
       ry="5.2220378" />
    <ellipse
       style="fill:#000000;fill-opacity:1;stroke:none;stroke-width:2.04393;stroke-miterlimit:4;stroke-dasharray:none;stop-color:#000000"
       id="path33122-28"
       cx="51.425114"
       cy="-108.84844"
       rx="5"
       ry="5.2220378" />
    <ellipse
       style="fill:#000000;fill-opacity:1;stroke:none;stroke-width:2.04393;stroke-miterlimit:4;stroke-dasharray:none;stop-color:#000000"
       id="path33122-9"
       cx="74.73764"
       cy="-148.38652"
       rx="5"
       ry="5.2220378" />
    <ellipse
       style="fill:#000000;fill-opacity:1;stroke:none;stroke-width:2.04393;stroke-miterlimit:4;stroke-dasharray:none;stop-color:#000000"
       id="path33122-6"
       cx="141.49496"
       cy="-148.93301"
       rx="5"
       ry="5.2220378" />
    <ellipse
       style="fill:#000000;fill-opacity:1;stroke:none;stroke-width:2.04393;stroke-miterlimit:4;stroke-dasharray:none;stop-color:#000000"
       id="path33122-7"
       cx="180.67567"
       cy="-111.75452"
       rx="5"
       ry="5.2220378" />
    <g
       inkscape:label=""
       transform="matrix(1,0,0,1.0444075,-142.54148,-191.51328)"
       id="g33881">
      <g
         id="g1087">
        <g
           style="fill:#000000;fill-opacity:1"
           id="g1863">
          <use
             xlink:href="#symbol6342"
             x="91.925003"
             y="81.962997"
             id="use1742"
             width="100%"
             height="100%" />
        </g>
        <g
           style="fill:#000000;fill-opacity:1"
           id="g9197">
          <use
             xlink:href="#symbol1284"
             x="98.490997"
             y="78.348"
             id="use6575"
             width="100%"
             height="100%" />
          <use
             xlink:href="#symbol9600"
             x="101.6041"
             y="78.348"
             id="use3232"
             width="100%"
             height="100%" />
          <use
             xlink:href="#symbol7675"
             x="105.57568"
             y="78.348"
             id="use8508"
             width="100%"
             height="100%" />
        </g>
      </g>
    </g>
    <g
       inkscape:label=""
       transform="matrix(1,0,0,1.0444075,-89.257449,-197.61597)"
       id="g34116">
      <g
         id="g5005">
        <g
           style="fill:#000000;fill-opacity:1"
           id="g5068">
          <use
             xlink:href="#symbol3766"
             x="91.925003"
             y="81.962997"
             id="use1813"
             width="100%"
             height="100%" />
        </g>
        <g
           style="fill:#000000;fill-opacity:1"
           id="g4844">
          <use
             xlink:href="#symbol566"
             x="98.490997"
             y="78.348"
             id="use765"
             width="100%"
             height="100%" />
          <use
             xlink:href="#symbol7937"
             x="101.6041"
             y="78.348"
             id="use9877"
             width="100%"
             height="100%" />
          <use
             xlink:href="#symbol3387"
             x="105.57568"
             y="78.348"
             id="use347"
             width="100%"
             height="100%" />
        </g>
      </g>
    </g>
    <g
       inkscape:label=""
       transform="matrix(1,0,0,1.0444075,-40.374842,-202.24301)"
       id="g34393">
      <g
         id="g7637">
        <g
           style="fill:#000000;fill-opacity:1"
           id="g1443">
          <use
             xlink:href="#symbol5395"
             x="91.925003"
             y="81.962997"
             id="use2891"
             width="100%"
             height="100%" />
        </g>
        <g
           style="fill:#000000;fill-opacity:1"
           id="g6454">
          <use
             xlink:href="#symbol3792"
             x="98.490997"
             y="78.348"
             id="use6542"
             width="100%"
             height="100%" />
          <use
             xlink:href="#symbol5433"
             x="101.6041"
             y="78.348"
             id="use5489"
             width="100%"
             height="100%" />
          <use
             xlink:href="#symbol6017"
             x="105.57568"
             y="78.348"
             id="use9492"
             width="100%"
             height="100%" />
        </g>
      </g>
    </g>
    <g
       inkscape:label=""
       transform="matrix(1,0,0,1.0444075,-27.215379,-242.61981)"
       id="g34712">
      <g
         id="g549">
        <g
           style="fill:#000000;fill-opacity:1"
           id="g2944">
          <use
             xlink:href="#symbol2639"
             x="91.925003"
             y="81.962997"
             id="use6747"
             width="100%"
             height="100%" />
        </g>
        <g
           style="fill:#000000;fill-opacity:1"
           id="g2116">
          <use
             xlink:href="#symbol351"
             x="98.490997"
             y="78.348"
             id="use8637"
             width="100%"
             height="100%" />
          <use
             xlink:href="#symbol9763"
             x="101.6041"
             y="78.348"
             id="use6314"
             width="100%"
             height="100%" />
          <use
             xlink:href="#symbol4417"
             x="105.57568"
             y="78.348"
             id="use4965"
             width="100%"
             height="100%" />
        </g>
      </g>
    </g>
    <g
       inkscape:label=""
       transform="matrix(1,0,0,1.0444075,53.037242,-247.63568)"
       id="g35073">
      <g
         id="g2279">
        <g
           style="fill:#000000;fill-opacity:1"
           id="g8932">
          <use
             xlink:href="#symbol5209"
             x="91.925003"
             y="81.962997"
             id="use6569"
             width="100%"
             height="100%" />
        </g>
        <g
           style="fill:#000000;fill-opacity:1"
           id="g8027">
          <use
             xlink:href="#symbol6470"
             x="98.490997"
             y="78.348"
             id="use8215"
             width="100%"
             height="100%" />
          <use
             xlink:href="#symbol1746"
             x="101.6041"
             y="78.348"
             id="use7502"
             width="100%"
             height="100%" />
          <use
             xlink:href="#symbol6916"
             x="105.57568"
             y="78.348"
             id="use7613"
             width="100%"
             height="100%" />
        </g>
      </g>
    </g>
    <g
       inkscape:label=""
       transform="matrix(1,0,0,1.0444075,100.931,-201.62301)"
       id="g35477">
      <g
         id="g9799">
        <g
           style="fill:#000000;fill-opacity:1"
           id="g1303">
          <use
             xlink:href="#symbol3036"
             x="91.925003"
             y="81.962997"
             id="use8582"
             width="100%"
             height="100%" />
        </g>
        <g
           style="fill:#000000;fill-opacity:1"
           id="g6619">
          <use
             xlink:href="#symbol617"
             x="98.490997"
             y="78.348"
             id="use681"
             width="100%"
             height="100%" />
          <use
             xlink:href="#symbol663"
             x="101.6041"
             y="78.348"
             id="use6688"
             width="100%"
             height="100%" />
          <use
             xlink:href="#symbol6718"
             x="105.57568"
             y="78.348"
             id="use1861"
             width="100%"
             height="100%" />
        </g>
      </g>
    </g>
    <path
       style="fill:none;fill-rule:evenodd;stroke:#000000;stroke-width:3;stroke-linecap:butt;stroke-linejoin:miter;stroke-miterlimit:4;stroke-dasharray:none;stroke-opacity:1;marker-end:url(#Arrow1Send-2)"
       d="m -28.389413,-127.14718 c 2.967972,-18.64171 10.692626,-21.13875 22.3340212,-10.34198"
       id="path36780-3"
       inkscape:connector-type="polyline"
       inkscape:connector-curvature="0"
       sodipodi:nodetypes="cc" />
    <path
       style="fill:none;fill-rule:evenodd;stroke:#000000;stroke-width:3;stroke-linecap:butt;stroke-linejoin:miter;stroke-miterlimit:4;stroke-dasharray:none;stroke-opacity:1;marker-end:url(#marker37156)"
       d="m 17.358357,-132.41855 c 16.522057,-14.91914 25.422949,-9.89229 29.790686,6.99865"
       id="path37669"
       inkscape:connector-type="polyline"
       inkscape:connector-curvature="0"
       sodipodi:nodetypes="cc" />
    <path
       style="fill:none;fill-rule:evenodd;stroke:#000000;stroke-width:3;stroke-linecap:butt;stroke-linejoin:miter;stroke-miterlimit:4;stroke-dasharray:none;stroke-opacity:1;marker-end:url(#marker37156)"
       d="m 154.92297,-156.77817 c 30.47452,-7.30578 29.58491,8.36522 27.2897,25.06592"
       id="path37679"
       inkscape:connector-type="polyline"
       inkscape:connector-curvature="0"
       sodipodi:nodetypes="cc" />
    <path
       style="fill:none;fill-rule:evenodd;stroke:#000000;stroke-width:3;stroke-linecap:butt;stroke-linejoin:miter;stroke-miterlimit:4;stroke-dasharray:none;stroke-opacity:1;marker-end:url(#marker37156)"
       d="m 63.196174,-110.85292 c 18.575518,-2.45708 32.45336,-6.76771 20.197784,-21.38968"
       id="path40599"
       inkscape:connector-type="polyline"
       inkscape:connector-curvature="0"
       sodipodi:nodetypes="cc" />
    <path
       style="fill:none;fill-rule:evenodd;stroke:#000000;stroke-width:3;stroke-linecap:butt;stroke-linejoin:miter;stroke-miterlimit:4;stroke-dasharray:none;stroke-opacity:1;marker-end:url(#marker37156)"
       d="m 85.183689,-163.90989 c 23.035801,-27.70924 35.284731,-15.23587 46.725171,0.24927"
       id="path41441"
       inkscape:connector-type="polyline"
       inkscape:connector-curvature="0"
       sodipodi:nodetypes="cc" />
    <path
       id="path43162"
       style="fill:#ffffff;fill-opacity:1;stroke:#000000;stroke-width:1.5;stroke-miterlimit:4;stroke-dasharray:none;stop-color:#000000"
       d="m -58.529622,-169.3138 a 8.9468354,8.4610348 0 0 0 6.45861,-2.61176 8.9468354,8.4610348 0 0 0 6.165956,2.33004 8.9468354,8.4610348 0 0 0 8.007108,-4.69428 8.9468354,8.4610348 0 0 0 4.595032,1.20175 8.9468354,8.4610348 0 0 0 8.947026,-8.46095 8.9468354,8.4610348 0 0 0 -7.640447,-8.36928 8.9468354,8.4610348 0 0 0 0.102037,-1.2721 8.9468354,8.4610348 0 0 0 -8.946746,-8.46123 8.9468354,8.4610348 0 0 0 -8.365638,5.47076 8.9468354,8.4610348 0 0 0 -0.361335,-0.0129 8.9468354,8.4610348 0 0 0 -8.926843,7.9589 8.9468354,8.4610348 0 0 0 -0.03476,-0.001 8.9468354,8.4610348 0 0 0 -8.946745,8.46122 8.9468354,8.4610348 0 0 0 8.946745,8.46095 z" />
  </g>
</svg>
